<?xml version="1.0" encoding="UTF-8"?>
<!DOCTYPE svg PUBLIC "-//W3C//DTD SVG 1.1//EN" "http://www.w3.org/Graphics/SVG/1.1/DTD/svg11.dtd">
<svg version="1.2" width="357.27mm" height="112.67mm" viewBox="437 362 35727 11267" preserveAspectRatio="xMidYMid" fill-rule="evenodd" stroke-width="28.222" stroke-linejoin="round" xmlns="http://www.w3.org/2000/svg" xmlns:ooo="http://xml.openoffice.org/svg/export" xmlns:xlink="http://www.w3.org/1999/xlink" xmlns:presentation="http://sun.com/xmlns/staroffice/presentation" xmlns:smil="http://www.w3.org/2001/SMIL20/" xmlns:anim="urn:oasis:names:tc:opendocument:xmlns:animation:1.0" xml:space="preserve">
 <defs class="ClipPathGroup">
  <clipPath id="presentation_clip_path" clipPathUnits="userSpaceOnUse">
   <rect x="437" y="362" width="35727" height="11267"/>
  </clipPath>
  <clipPath id="presentation_clip_path_shrink" clipPathUnits="userSpaceOnUse">
   <rect x="472" y="373" width="35656" height="11245"/>
  </clipPath>
 </defs>
 <defs class="TextShapeIndex">
  <g ooo:slide="id1" ooo:id-list="id3 id4 id5 id6 id7 id8 id9 id10 id11 id12 id13 id14 id15 id16 id17 id18 id19 id20 id21 id22 id23 id24 id25 id26 id27 id28 id29 id30 id31 id32 id33 id34 id35 id36 id37 id38 id39 id40 id41 id42 id43 id44 id45 id46 id47 id48 id49 id50 id51 id52 id53 id54 id55 id56 id57 id58 id59 id60 id61 id62 id63 id64 id65 id66 id67 id68 id69 id70 id71 id72 id73 id74 id75 id76 id77 id78 id79 id80 id81 id82 id83 id84 id85 id86 id87 id88 id89 id90 id91 id92 id93 id94 id95 id96 id97 id98"/>
 </defs>
 <defs class="EmbeddedBulletChars">
  <g id="bullet-char-template-57356" transform="scale(0.00048828125,-0.00048828125)">
   <path d="M 580,1141 L 1163,571 580,0 -4,571 580,1141 Z"/>
  </g>
  <g id="bullet-char-template-57354" transform="scale(0.00048828125,-0.00048828125)">
   <path d="M 8,1128 L 1137,1128 1137,0 8,0 8,1128 Z"/>
  </g>
  <g id="bullet-char-template-10146" transform="scale(0.00048828125,-0.00048828125)">
   <path d="M 174,0 L 602,739 174,1481 1456,739 174,0 Z M 1358,739 L 309,1346 659,739 1358,739 Z"/>
  </g>
  <g id="bullet-char-template-10132" transform="scale(0.00048828125,-0.00048828125)">
   <path d="M 2015,739 L 1276,0 717,0 1260,543 174,543 174,936 1260,936 717,1481 1274,1481 2015,739 Z"/>
  </g>
  <g id="bullet-char-template-10007" transform="scale(0.00048828125,-0.00048828125)">
   <path d="M 0,-2 C -7,14 -16,27 -25,37 L 356,567 C 262,823 215,952 215,954 215,979 228,992 255,992 264,992 276,990 289,987 310,991 331,999 354,1012 L 381,999 492,748 772,1049 836,1024 860,1049 C 881,1039 901,1025 922,1006 886,937 835,863 770,784 769,783 710,716 594,584 L 774,223 C 774,196 753,168 711,139 L 727,119 C 717,90 699,76 672,76 641,76 570,178 457,381 L 164,-76 C 142,-110 111,-127 72,-127 30,-127 9,-110 8,-76 1,-67 -2,-52 -2,-32 -2,-23 -1,-13 0,-2 Z"/>
  </g>
  <g id="bullet-char-template-10004" transform="scale(0.00048828125,-0.00048828125)">
   <path d="M 285,-33 C 182,-33 111,30 74,156 52,228 41,333 41,471 41,549 55,616 82,672 116,743 169,778 240,778 293,778 328,747 346,684 L 369,508 C 377,444 397,411 428,410 L 1163,1116 C 1174,1127 1196,1133 1229,1133 1271,1133 1292,1118 1292,1087 L 1292,965 C 1292,929 1282,901 1262,881 L 442,47 C 390,-6 338,-33 285,-33 Z"/>
  </g>
  <g id="bullet-char-template-9679" transform="scale(0.00048828125,-0.00048828125)">
   <path d="M 813,0 C 632,0 489,54 383,161 276,268 223,411 223,592 223,773 276,916 383,1023 489,1130 632,1184 813,1184 992,1184 1136,1130 1245,1023 1353,916 1407,772 1407,592 1407,412 1353,268 1245,161 1136,54 992,0 813,0 Z"/>
  </g>
  <g id="bullet-char-template-8226" transform="scale(0.00048828125,-0.00048828125)">
   <path d="M 346,457 C 273,457 209,483 155,535 101,586 74,649 74,723 74,796 101,859 155,911 209,963 273,989 346,989 419,989 480,963 531,910 582,859 608,796 608,723 608,648 583,586 532,535 482,483 420,457 346,457 Z"/>
  </g>
  <g id="bullet-char-template-8211" transform="scale(0.00048828125,-0.00048828125)">
   <path d="M -4,459 L 1135,459 1135,606 -4,606 -4,459 Z"/>
  </g>
  <g id="bullet-char-template-61548" transform="scale(0.00048828125,-0.00048828125)">
   <path d="M 173,740 C 173,903 231,1043 346,1159 462,1274 601,1332 765,1332 928,1332 1067,1274 1183,1159 1299,1043 1357,903 1357,740 1357,577 1299,437 1183,322 1067,206 928,148 765,148 601,148 462,206 346,322 231,437 173,577 173,740 Z"/>
  </g>
 </defs>
 <defs class="TextEmbeddedBitmaps"/>
 <g class="SlideGroup">
  <g>
   <g id="container-id1">
    <g id="id1" class="Slide" clip-path="url(#presentation_clip_path)">
     <g class="Page">
      <g class="com.sun.star.drawing.LineShape">
       <g id="id3">
        <rect class="BoundingBox" stroke="none" fill="none" x="24702" y="3016" width="129" height="2022"/>
        <path fill="none" stroke="rgb(0,0,0)" stroke-width="127" stroke-linejoin="round" d="M 24766,4973 L 24766,3080"/>
       </g>
      </g>
      <g class="com.sun.star.drawing.RectangleShape">
       <g id="id4">
        <rect class="BoundingBox" stroke="none" fill="none" x="436" y="485" width="3318" height="11090"/>
        <path fill="rgb(255,249,174)" stroke="none" d="M 2095,11510 L 500,11510 500,549 3689,549 3689,11510 2095,11510 Z"/>
        <path fill="none" stroke="rgb(0,0,0)" stroke-width="127" stroke-linejoin="round" d="M 2095,11510 L 500,11510 500,549 3689,549 3689,11510 2095,11510 Z"/>
       </g>
      </g>
      <g class="Group">
       <g class="com.sun.star.drawing.PolyPolygonShape">
        <g id="id5">
         <rect class="BoundingBox" stroke="none" fill="none" x="1844" y="5177" width="573" height="693"/>
        </g>
       </g>
       <g class="com.sun.star.drawing.ClosedBezierShape">
        <g id="id6">
         <rect class="BoundingBox" stroke="none" fill="none" x="1878" y="5162" width="526" height="730"/>
         <path fill="rgb(0,0,0)" stroke="none" d="M 1882,5843 C 1879,5856 1879,5859 1879,5862 1879,5878 1891,5890 1910,5890 1932,5890 1948,5872 1948,5868 1954,5859 1988,5708 2020,5589 2042,5633 2076,5664 2130,5664 2258,5664 2403,5507 2403,5344 2403,5225 2331,5162 2249,5162 2139,5162 2023,5272 1992,5407 L 1882,5843 Z M 2130,5639 C 2051,5639 2032,5551 2032,5542 2032,5536 2039,5514 2042,5501 2073,5376 2083,5335 2108,5291 2155,5212 2211,5187 2246,5187 2287,5187 2321,5219 2321,5294 2321,5357 2290,5479 2261,5536 2224,5605 2170,5639 2130,5639 Z"/>
        </g>
       </g>
      </g>
      <g class="com.sun.star.drawing.LineShape">
       <g id="id7">
        <rect class="BoundingBox" stroke="none" fill="none" x="3625" y="1408" width="2022" height="129"/>
        <path fill="none" stroke="rgb(0,0,0)" stroke-width="127" stroke-linejoin="round" d="M 3689,1472 L 5582,1472"/>
       </g>
      </g>
      <g class="com.sun.star.drawing.LineShape">
       <g id="id8">
        <rect class="BoundingBox" stroke="none" fill="none" x="3626" y="10195" width="2022" height="129"/>
        <path fill="none" stroke="rgb(0,0,0)" stroke-width="127" stroke-linejoin="round" d="M 3690,10259 L 5583,10259"/>
       </g>
      </g>
      <g class="Group">
       <g class="com.sun.star.drawing.PolyPolygonShape">
        <g id="id9">
         <rect class="BoundingBox" stroke="none" fill="none" x="4424" y="1272" width="385" height="730"/>
        </g>
       </g>
       <g class="com.sun.star.drawing.ClosedBezierShape">
        <g id="id10">
         <rect class="BoundingBox" stroke="none" fill="none" x="4456" y="1739" width="297" height="746"/>
         <path fill="rgb(0,0,0)" stroke="none" d="M 4742,1781 C 4742,1759 4726,1740 4698,1740 4670,1740 4638,1768 4638,1799 4638,1818 4654,1837 4682,1837 4707,1837 4742,1812 4742,1781 Z M 4657,2195 C 4670,2163 4670,2160 4679,2132 4688,2110 4695,2094 4695,2072 4695,2022 4660,1981 4604,1981 4497,1981 4456,2141 4456,2154 4456,2163 4469,2163 4469,2163 4481,2163 4481,2160 4487,2145 4519,2041 4563,2006 4600,2006 4610,2006 4629,2006 4629,2041 4629,2066 4619,2088 4616,2101 4607,2129 4557,2258 4538,2305 4528,2333 4513,2371 4513,2393 4513,2446 4550,2484 4604,2484 4710,2484 4751,2323 4751,2314 4751,2302 4742,2302 4739,2302 4726,2302 4726,2305 4720,2323 4701,2393 4663,2458 4607,2458 4588,2458 4578,2449 4578,2424 4578,2396 4588,2380 4613,2311 L 4657,2195 Z"/>
        </g>
       </g>
      </g>
      <g class="Group">
       <g class="com.sun.star.drawing.PolyPolygonShape">
        <g id="id11">
         <rect class="BoundingBox" stroke="none" fill="none" x="4589" y="10579" width="353" height="768"/>
        </g>
       </g>
       <g class="com.sun.star.drawing.ClosedBezierShape">
        <g id="id12">
         <rect class="BoundingBox" stroke="none" fill="none" x="4636" y="10576" width="241" height="783"/>
         <path fill="rgb(0,0,0)" stroke="none" d="M 4875,10589 C 4875,10589 4875,10576 4863,10576 4834,10576 4753,10586 4724,10589 4715,10589 4702,10589 4702,10611 4702,10623 4715,10623 4731,10623 4784,10623 4787,10633 4787,10642 L 4784,10664 4643,11216 C 4640,11229 4637,11238 4637,11254 4637,11317 4687,11358 4737,11358 4775,11358 4803,11336 4822,11295 4844,11254 4856,11188 4856,11185 4856,11176 4847,11176 4844,11176 4831,11176 4831,11179 4828,11194 4806,11267 4787,11333 4740,11333 4709,11333 4709,11298 4709,11282 4709,11254 4709,11251 4715,11229 L 4875,10589 Z"/>
        </g>
       </g>
      </g>
      <g class="com.sun.star.drawing.RectangleShape">
       <g id="id13">
        <rect class="BoundingBox" stroke="none" fill="none" x="8154" y="436" width="3318" height="2765"/>
        <path fill="rgb(255,249,174)" stroke="none" d="M 9813,3136 L 8218,3136 8218,500 11407,500 11407,3136 9813,3136 Z"/>
        <path fill="none" stroke="rgb(0,0,0)" stroke-width="127" stroke-linejoin="round" d="M 9813,3136 L 8218,3136 8218,500 11407,500 11407,3136 9813,3136 Z"/>
       </g>
      </g>
      <g class="com.sun.star.drawing.LineShape">
       <g id="id14">
        <rect class="BoundingBox" stroke="none" fill="none" x="6244" y="1408" width="2022" height="129"/>
        <path fill="none" stroke="rgb(0,0,0)" stroke-width="127" stroke-linejoin="round" d="M 6308,1472 L 8201,1472"/>
       </g>
      </g>
      <g class="com.sun.star.drawing.LineShape">
       <g id="id15">
        <rect class="BoundingBox" stroke="none" fill="none" x="11345" y="1408" width="2022" height="129"/>
        <path fill="none" stroke="rgb(0,0,0)" stroke-width="127" stroke-linejoin="round" d="M 11409,1472 L 13302,1472"/>
       </g>
      </g>
      <g class="com.sun.star.drawing.LineShape">
       <g id="id16">
        <rect class="BoundingBox" stroke="none" fill="none" x="9702" y="3026" width="129" height="2022"/>
        <path fill="none" stroke="rgb(0,0,0)" stroke-width="127" stroke-linejoin="round" d="M 9766,4983 L 9766,3090"/>
       </g>
      </g>
      <g class="com.sun.star.drawing.RectangleShape">
       <g id="id17">
        <rect class="BoundingBox" stroke="none" fill="none" x="8060" y="8810" width="3318" height="2765"/>
        <path fill="rgb(255,249,174)" stroke="none" d="M 9718,8874 L 11313,8874 11313,11510 8124,11510 8124,8874 9718,8874 Z"/>
        <path fill="none" stroke="rgb(0,0,0)" stroke-width="127" stroke-linejoin="round" d="M 9718,8874 L 11313,8874 11313,11510 8124,11510 8124,8874 9718,8874 Z"/>
       </g>
      </g>
      <g class="com.sun.star.drawing.LineShape">
       <g id="id18">
        <rect class="BoundingBox" stroke="none" fill="none" x="11266" y="10195" width="2023" height="129"/>
        <path fill="none" stroke="rgb(0,0,0)" stroke-width="127" stroke-linejoin="round" d="M 13224,10259 L 11330,10259"/>
       </g>
      </g>
      <g class="com.sun.star.drawing.LineShape">
       <g id="id19">
        <rect class="BoundingBox" stroke="none" fill="none" x="6165" y="10195" width="2023" height="129"/>
        <path fill="none" stroke="rgb(0,0,0)" stroke-width="127" stroke-linejoin="round" d="M 8123,10259 L 6229,10259"/>
       </g>
      </g>
      <g class="com.sun.star.drawing.LineShape">
       <g id="id20">
        <rect class="BoundingBox" stroke="none" fill="none" x="9702" y="6948" width="129" height="2023"/>
        <path fill="none" stroke="rgb(0,0,0)" stroke-width="127" stroke-linejoin="round" d="M 9766,7012 L 9766,8906"/>
       </g>
      </g>
      <g class="Group">
       <g class="com.sun.star.drawing.PolyPolygonShape">
        <g id="id21">
         <rect class="BoundingBox" stroke="none" fill="none" x="9247" y="1385" width="831" height="756"/>
        </g>
       </g>
       <g class="com.sun.star.drawing.ClosedBezierShape">
        <g id="id22">
         <rect class="BoundingBox" stroke="none" fill="none" x="9285" y="1348" width="762" height="796"/>
         <path fill="rgb(0,0,0)" stroke="none" d="M 9446,2014 C 9402,2089 9358,2105 9307,2108 9295,2108 9285,2108 9285,2130 9285,2136 9292,2142 9301,2142 9329,2142 9364,2139 9395,2139 9433,2139 9471,2142 9505,2142 9511,2142 9527,2142 9527,2120 9527,2108 9518,2108 9508,2108 9483,2105 9458,2095 9458,2067 9458,2054 9464,2042 9474,2026 L 9555,1885 9835,1885 C 9838,1910 9854,2061 9854,2070 9854,2105 9794,2108 9772,2108 9756,2108 9747,2108 9747,2130 9747,2142 9759,2142 9763,2142 9806,2142 9854,2139 9901,2139 9929,2139 9998,2142 10026,2142 10032,2142 10045,2142 10045,2120 10045,2108 10036,2108 10020,2108 9951,2108 9951,2098 9948,2067 L 9882,1373 C 9879,1351 9879,1348 9860,1348 9841,1348 9838,1354 9832,1367 L 9446,2014 Z M 9577,1850 L 9797,1486 9832,1850 9577,1850 Z"/>
        </g>
       </g>
      </g>
      <g class="Group">
       <g class="com.sun.star.drawing.PolyPolygonShape">
        <g id="id23">
         <rect class="BoundingBox" stroke="none" fill="none" x="9169" y="9816" width="893" height="755"/>
        </g>
       </g>
       <g class="com.sun.star.drawing.ClosedBezierShape">
        <g id="id24">
         <rect class="BoundingBox" stroke="none" fill="none" x="9216" y="9813" width="793" height="758"/>
         <path fill="rgb(0,0,0)" stroke="none" d="M 9348,10485 C 9336,10526 9333,10535 9248,10535 9229,10535 9216,10535 9216,10557 9216,10570 9226,10570 9248,10570 L 9640,10570 C 9816,10570 9948,10438 9948,10331 9948,10250 9882,10187 9775,10174 9891,10153 10007,10071 10007,9967 10007,9886 9935,9814 9800,9814 L 9430,9814 C 9408,9814 9398,9814 9398,9836 9398,9848 9408,9848 9427,9848 9430,9848 9452,9848 9471,9851 9489,9851 9499,9854 9499,9867 9499,9873 9499,9876 9496,9889 L 9348,10485 Z M 9515,10165 L 9584,9889 C 9593,9851 9596,9848 9643,9848 L 9785,9848 C 9882,9848 9907,9914 9907,9961 9907,10058 9810,10165 9675,10165 L 9515,10165 Z M 9464,10535 C 9449,10535 9446,10535 9439,10535 9430,10532 9427,10532 9427,10523 9427,10520 9427,10517 9430,10498 L 9508,10190 9715,10190 C 9822,10190 9844,10272 9844,10319 9844,10429 9747,10535 9615,10535 L 9464,10535 Z"/>
        </g>
       </g>
      </g>
      <g class="Group">
       <g class="com.sun.star.drawing.PolyPolygonShape">
        <g id="id25">
         <rect class="BoundingBox" stroke="none" fill="none" x="6658" y="1742" width="385" height="730"/>
        </g>
       </g>
       <g class="com.sun.star.drawing.ClosedBezierShape">
        <g id="id26">
         <rect class="BoundingBox" stroke="none" fill="none" x="6689" y="1739" width="297" height="746"/>
         <path fill="rgb(0,0,0)" stroke="none" d="M 6976,1781 C 6976,1759 6960,1740 6932,1740 6903,1740 6872,1768 6872,1799 6872,1818 6888,1837 6916,1837 6941,1837 6976,1812 6976,1781 Z M 6891,2195 C 6903,2163 6903,2160 6913,2132 6922,2110 6928,2094 6928,2072 6928,2022 6894,1981 6837,1981 6731,1981 6690,2141 6690,2154 6690,2163 6702,2163 6702,2163 6715,2163 6715,2160 6721,2145 6753,2041 6797,2006 6834,2006 6844,2006 6863,2006 6863,2041 6863,2066 6853,2088 6850,2101 6841,2129 6790,2258 6772,2305 6762,2333 6746,2371 6746,2393 6746,2446 6784,2484 6837,2484 6944,2484 6985,2323 6985,2314 6985,2302 6976,2302 6972,2302 6960,2302 6960,2305 6954,2323 6935,2393 6897,2458 6841,2458 6822,2458 6812,2449 6812,2424 6812,2396 6822,2380 6847,2311 L 6891,2195 Z"/>
        </g>
       </g>
      </g>
      <g class="Group">
       <g class="com.sun.star.drawing.PolyPolygonShape">
        <g id="id27">
         <rect class="BoundingBox" stroke="none" fill="none" x="8950" y="3547" width="520" height="944"/>
        </g>
       </g>
       <g class="com.sun.star.drawing.ClosedBezierShape">
        <g id="id28">
         <rect class="BoundingBox" stroke="none" fill="none" x="8934" y="3544" width="457" height="959"/>
         <path fill="rgb(0,0,0)" stroke="none" d="M 9390,3585 C 9390,3563 9374,3544 9349,3544 9324,3544 9289,3569 9289,3604 9289,3626 9305,3642 9330,3642 9362,3642 9390,3613 9390,3585 Z M 9167,4332 C 9145,4417 9092,4480 9029,4480 9023,4480 9007,4480 8988,4467 9019,4461 9038,4433 9038,4411 9038,4392 9026,4370 8994,4370 8966,4370 8935,4395 8935,4436 8935,4480 8979,4502 9032,4502 9111,4502 9214,4445 9242,4335 L 9343,3930 C 9349,3908 9349,3893 9349,3890 9349,3827 9302,3786 9245,3786 9132,3786 9070,3946 9070,3959 9070,3968 9082,3968 9082,3968 9095,3968 9095,3968 9104,3946 9132,3877 9183,3811 9242,3811 9258,3811 9280,3814 9280,3861 9280,3886 9277,3899 9271,3918 L 9167,4332 Z"/>
        </g>
       </g>
      </g>
      <g class="Group">
       <g class="com.sun.star.drawing.PolyPolygonShape">
        <g id="id29">
         <rect class="BoundingBox" stroke="none" fill="none" x="12151" y="1705" width="611" height="767"/>
        </g>
       </g>
       <g class="com.sun.star.drawing.ClosedBezierShape">
        <g id="id30">
         <rect class="BoundingBox" stroke="none" fill="none" x="12211" y="1702" width="504" height="783"/>
         <path fill="rgb(0,0,0)" stroke="none" d="M 12469,1715 C 12469,1715 12469,1702 12453,1702 12428,1702 12349,1711 12318,1715 12309,1715 12299,1715 12299,1737 12299,1749 12309,1749 12324,1749 12378,1749 12381,1755 12381,1768 L 12378,1790 12215,2427 C 12211,2443 12211,2446 12211,2452 12211,2477 12233,2484 12243,2484 12258,2484 12274,2474 12280,2458 12287,2449 12337,2245 12343,2217 12381,2220 12472,2239 12472,2311 12472,2320 12472,2323 12469,2333 12466,2349 12466,2361 12466,2374 12466,2440 12510,2484 12566,2484 12601,2484 12629,2465 12654,2424 12682,2377 12695,2314 12695,2311 12695,2302 12685,2302 12682,2302 12670,2302 12670,2305 12666,2320 12644,2402 12616,2458 12569,2458 12547,2458 12535,2446 12535,2405 12535,2386 12538,2361 12541,2345 12547,2327 12547,2320 12547,2311 12547,2239 12478,2207 12381,2195 12415,2173 12453,2138 12478,2113 12531,2054 12582,2006 12635,2006 12644,2006 12644,2006 12648,2006 12660,2010 12660,2010 12670,2016 12673,2016 12673,2019 12673,2019 12623,2022 12610,2066 12610,2079 12610,2098 12623,2119 12654,2119 12682,2119 12714,2094 12714,2050 12714,2019 12688,1981 12638,1981 12607,1981 12557,1991 12478,2079 12440,2119 12397,2163 12353,2182 L 12469,1715 Z"/>
        </g>
       </g>
      </g>
      <g class="Group">
       <g class="com.sun.star.drawing.PolyPolygonShape">
        <g id="id31">
         <rect class="BoundingBox" stroke="none" fill="none" x="6893" y="10579" width="354" height="768"/>
        </g>
       </g>
       <g class="com.sun.star.drawing.ClosedBezierShape">
        <g id="id32">
         <rect class="BoundingBox" stroke="none" fill="none" x="6941" y="10576" width="240" height="783"/>
         <path fill="rgb(0,0,0)" stroke="none" d="M 7180,10589 C 7180,10589 7180,10576 7167,10576 7139,10576 7057,10586 7029,10589 7019,10589 7007,10589 7007,10611 7007,10623 7019,10623 7035,10623 7089,10623 7092,10633 7092,10642 L 7089,10664 6947,11216 C 6944,11229 6941,11238 6941,11254 6941,11317 6991,11358 7041,11358 7079,11358 7107,11336 7126,11295 7148,11254 7161,11188 7161,11185 7161,11176 7151,11176 7148,11176 7136,11176 7136,11179 7132,11194 7110,11267 7092,11333 7045,11333 7013,11333 7013,11298 7013,11282 7013,11254 7013,11251 7019,11229 L 7180,10589 Z"/>
        </g>
       </g>
      </g>
      <g class="Group">
       <g class="com.sun.star.drawing.PolyPolygonShape">
        <g id="id33">
         <rect class="BoundingBox" stroke="none" fill="none" x="11837" y="10871" width="665" height="479"/>
        </g>
       </g>
       <g class="com.sun.star.drawing.ClosedBezierShape">
        <g id="id34">
         <rect class="BoundingBox" stroke="none" fill="none" x="11869" y="10855" width="601" height="504"/>
         <path fill="rgb(0,0,0)" stroke="none" d="M 11935,11279 C 11932,11298 11926,11323 11926,11329 11926,11348 11941,11358 11957,11358 11970,11358 11992,11348 11998,11326 11998,11326 12014,11273 12020,11245 L 12042,11144 C 12051,11122 12058,11097 12061,11072 12067,11053 12076,11019 12076,11016 12092,10981 12152,10881 12258,10881 12309,10881 12318,10921 12318,10959 12318,11025 12262,11169 12246,11216 12236,11242 12233,11254 12233,11267 12233,11320 12274,11358 12324,11358 12428,11358 12469,11198 12469,11188 12469,11176 12459,11176 12456,11176 12447,11176 12447,11179 12440,11198 12419,11273 12381,11333 12327,11333 12309,11333 12299,11323 12299,11298 12299,11270 12312,11242 12321,11220 12343,11160 12387,11038 12387,10975 12387,10899 12340,10856 12262,10856 12161,10856 12108,10928 12089,10953 12083,10890 12036,10856 11985,10856 11935,10856 11913,10899 11904,10918 11885,10956 11869,11022 11869,11025 11869,11038 11882,11038 11882,11038 11894,11038 11894,11038 11901,11012 11919,10934 11941,10881 11982,10881 12004,10881 12017,10893 12017,10931 12017,10953 12014,10965 11998,11025 L 11935,11279 Z"/>
        </g>
       </g>
      </g>
      <g class="Group">
       <g class="com.sun.star.drawing.PolyPolygonShape">
        <g id="id35">
         <rect class="BoundingBox" stroke="none" fill="none" x="8950" y="7313" width="520" height="944"/>
        </g>
       </g>
       <g class="com.sun.star.drawing.ClosedBezierShape">
        <g id="id36">
         <rect class="BoundingBox" stroke="none" fill="none" x="8934" y="7310" width="457" height="959"/>
         <path fill="rgb(0,0,0)" stroke="none" d="M 9390,7351 C 9390,7329 9374,7311 9349,7311 9324,7311 9289,7336 9289,7370 9289,7392 9305,7408 9330,7408 9362,7408 9390,7380 9390,7351 Z M 9167,8098 C 9145,8183 9092,8246 9029,8246 9023,8246 9007,8246 8988,8233 9019,8227 9038,8199 9038,8177 9038,8158 9026,8136 8994,8136 8966,8136 8935,8161 8935,8202 8935,8246 8979,8268 9032,8268 9111,8268 9214,8211 9242,8101 L 9343,7697 C 9349,7675 9349,7659 9349,7656 9349,7593 9302,7552 9245,7552 9132,7552 9070,7712 9070,7725 9070,7734 9082,7734 9082,7734 9095,7734 9095,7734 9104,7712 9132,7643 9183,7577 9242,7577 9258,7577 9280,7580 9280,7628 9280,7653 9277,7665 9271,7684 L 9167,8098 Z"/>
        </g>
       </g>
      </g>
      <g class="com.sun.star.drawing.LineShape">
       <g id="id37">
        <rect class="BoundingBox" stroke="none" fill="none" x="18626" y="10185" width="2022" height="129"/>
        <path fill="none" stroke="rgb(0,0,0)" stroke-width="127" stroke-linejoin="round" d="M 18690,10249 L 20583,10249"/>
       </g>
      </g>
      <g class="Group">
       <g class="com.sun.star.drawing.PolyPolygonShape">
        <g id="id38">
         <rect class="BoundingBox" stroke="none" fill="none" x="19589" y="10569" width="353" height="768"/>
        </g>
       </g>
       <g class="com.sun.star.drawing.ClosedBezierShape">
        <g id="id39">
         <rect class="BoundingBox" stroke="none" fill="none" x="19636" y="10566" width="241" height="783"/>
         <path fill="rgb(0,0,0)" stroke="none" d="M 19875,10579 C 19875,10579 19875,10566 19863,10566 19834,10566 19753,10576 19724,10579 19715,10579 19702,10579 19702,10601 19702,10613 19715,10613 19731,10613 19784,10613 19787,10623 19787,10632 L 19784,10654 19643,11206 C 19640,11219 19637,11228 19637,11244 19637,11307 19687,11348 19737,11348 19775,11348 19803,11326 19822,11285 19844,11244 19856,11178 19856,11175 19856,11166 19847,11166 19844,11166 19831,11166 19831,11169 19828,11184 19806,11257 19787,11323 19740,11323 19709,11323 19709,11288 19709,11272 19709,11244 19709,11241 19715,11219 L 19875,10579 Z"/>
        </g>
       </g>
      </g>
      <g class="com.sun.star.drawing.ClosedBezierShape">
       <g id="id40">
        <rect class="BoundingBox" stroke="none" fill="none" x="15371" y="361" width="11166" height="11269"/>
        <path fill="rgb(255,211,32)" stroke="none" d="M 15468,11555 C 15458,11549 15451,11542 15445,11532 15439,11522 15437,11512 15437,11500 L 15437,3126 15437,539 15437,490 C 15437,478 15439,468 15445,458 15451,448 15458,441 15468,435 15478,429 15488,427 15500,427 L 26407,427 C 26419,427 26429,429 26439,435 26449,441 26456,448 26462,458 26468,468 26471,478 26471,490 L 26471,3126 C 26471,3138 26468,3148 26462,3158 26456,3168 26449,3175 26439,3181 26429,3187 26419,3190 26407,3190 L 18753,3190 18753,11500 C 18753,11512 18750,11522 18744,11532 18738,11542 18731,11549 18721,11555 18711,11561 18701,11564 18689,11564 L 15500,11564 C 15488,11564 15478,11561 15468,11555 Z"/>
        <path fill="none" stroke="rgb(0,0,0)" stroke-width="130" stroke-linejoin="round" d="M 15468,11555 C 15458,11549 15451,11542 15445,11532 15439,11522 15437,11512 15437,11500 L 15437,3126 15437,539 15437,490 C 15437,478 15439,468 15445,458 15451,448 15458,441 15468,435 15478,429 15488,427 15500,427 L 26407,427 C 26419,427 26429,429 26439,435 26449,441 26456,448 26462,458 26468,468 26471,478 26471,490 L 26471,3126 C 26471,3138 26468,3148 26462,3158 26456,3168 26449,3175 26439,3181 26429,3187 26419,3190 26407,3190 L 18753,3190 18753,11500 C 18753,11512 18750,11522 18744,11532 18738,11542 18731,11549 18721,11555 18711,11561 18701,11564 18689,11564 L 15500,11564 C 15488,11564 15478,11561 15468,11555 Z"/>
       </g>
      </g>
      <g class="Group">
       <g class="com.sun.star.drawing.PolyPolygonShape">
        <g id="id41">
         <rect class="BoundingBox" stroke="none" fill="none" x="16844" y="5167" width="573" height="693"/>
        </g>
       </g>
       <g class="com.sun.star.drawing.ClosedBezierShape">
        <g id="id42">
         <rect class="BoundingBox" stroke="none" fill="none" x="16878" y="5152" width="526" height="730"/>
         <path fill="rgb(0,0,0)" stroke="none" d="M 16882,5833 C 16879,5846 16879,5849 16879,5852 16879,5868 16891,5880 16910,5880 16932,5880 16948,5862 16948,5858 16954,5849 16988,5698 17020,5579 17042,5623 17076,5654 17130,5654 17258,5654 17403,5497 17403,5334 17403,5215 17331,5152 17249,5152 17139,5152 17023,5262 16992,5397 L 16882,5833 Z M 17130,5629 C 17051,5629 17032,5541 17032,5532 17032,5526 17039,5504 17042,5491 17073,5366 17083,5325 17108,5281 17155,5202 17211,5177 17246,5177 17287,5177 17321,5209 17321,5284 17321,5347 17290,5469 17261,5526 17224,5595 17170,5629 17130,5629 Z"/>
        </g>
       </g>
      </g>
      <g class="com.sun.star.drawing.LineShape">
       <g id="id43">
        <rect class="BoundingBox" stroke="none" fill="none" x="26345" y="1398" width="2022" height="129"/>
        <path fill="none" stroke="rgb(0,0,0)" stroke-width="127" stroke-linejoin="round" d="M 26409,1462 L 28302,1462"/>
       </g>
      </g>
      <g class="com.sun.star.drawing.RectangleShape">
       <g id="id44">
        <rect class="BoundingBox" stroke="none" fill="none" x="23060" y="8800" width="3318" height="2765"/>
        <path fill="rgb(255,211,32)" stroke="none" d="M 24719,8864 L 26313,8864 26313,11500 23124,11500 23124,8864 24719,8864 Z"/>
        <path fill="none" stroke="rgb(0,0,0)" stroke-width="127" stroke-linejoin="round" d="M 24719,8864 L 26313,8864 26313,11500 23124,11500 23124,8864 24719,8864 Z"/>
       </g>
      </g>
      <g class="com.sun.star.drawing.LineShape">
       <g id="id45">
        <rect class="BoundingBox" stroke="none" fill="none" x="26266" y="10185" width="2023" height="129"/>
        <path fill="none" stroke="rgb(0,0,0)" stroke-width="127" stroke-linejoin="round" d="M 28224,10249 L 26330,10249"/>
       </g>
      </g>
      <g class="com.sun.star.drawing.LineShape">
       <g id="id46">
        <rect class="BoundingBox" stroke="none" fill="none" x="21165" y="10185" width="2023" height="129"/>
        <path fill="none" stroke="rgb(0,0,0)" stroke-width="127" stroke-linejoin="round" d="M 23123,10249 L 21229,10249"/>
       </g>
      </g>
      <g class="com.sun.star.drawing.LineShape">
       <g id="id47">
        <rect class="BoundingBox" stroke="none" fill="none" x="24702" y="6938" width="129" height="2023"/>
        <path fill="none" stroke="rgb(0,0,0)" stroke-width="127" stroke-linejoin="round" d="M 24766,7002 L 24766,8896"/>
       </g>
      </g>
      <g class="Group">
       <g class="com.sun.star.drawing.PolyPolygonShape">
        <g id="id48">
         <rect class="BoundingBox" stroke="none" fill="none" x="24247" y="1375" width="831" height="756"/>
        </g>
       </g>
       <g class="com.sun.star.drawing.ClosedBezierShape">
        <g id="id49">
         <rect class="BoundingBox" stroke="none" fill="none" x="24285" y="1338" width="762" height="796"/>
         <path fill="rgb(0,0,0)" stroke="none" d="M 24446,2004 C 24402,2079 24358,2095 24307,2098 24295,2098 24285,2098 24285,2120 24285,2126 24292,2132 24301,2132 24329,2132 24364,2129 24395,2129 24433,2129 24471,2132 24505,2132 24511,2132 24527,2132 24527,2110 24527,2098 24518,2098 24508,2098 24483,2095 24458,2085 24458,2057 24458,2044 24464,2032 24474,2016 L 24555,1875 24835,1875 C 24838,1900 24854,2051 24854,2060 24854,2095 24794,2098 24772,2098 24756,2098 24747,2098 24747,2120 24747,2132 24759,2132 24763,2132 24806,2132 24854,2129 24901,2129 24929,2129 24998,2132 25026,2132 25032,2132 25045,2132 25045,2110 25045,2098 25036,2098 25020,2098 24951,2098 24951,2088 24948,2057 L 24882,1363 C 24879,1341 24879,1338 24860,1338 24841,1338 24838,1344 24832,1357 L 24446,2004 Z M 24577,1840 L 24797,1476 24832,1840 24577,1840 Z"/>
        </g>
       </g>
      </g>
      <g class="Group">
       <g class="com.sun.star.drawing.PolyPolygonShape">
        <g id="id50">
         <rect class="BoundingBox" stroke="none" fill="none" x="24169" y="9806" width="893" height="755"/>
        </g>
       </g>
       <g class="com.sun.star.drawing.ClosedBezierShape">
        <g id="id51">
         <rect class="BoundingBox" stroke="none" fill="none" x="24216" y="9803" width="793" height="758"/>
         <path fill="rgb(0,0,0)" stroke="none" d="M 24348,10475 C 24336,10516 24333,10525 24248,10525 24229,10525 24216,10525 24216,10547 24216,10560 24226,10560 24248,10560 L 24640,10560 C 24816,10560 24948,10428 24948,10321 24948,10240 24882,10177 24775,10164 24891,10143 25007,10061 25007,9957 25007,9876 24935,9804 24800,9804 L 24430,9804 C 24408,9804 24398,9804 24398,9826 24398,9838 24408,9838 24427,9838 24430,9838 24452,9838 24471,9841 24489,9841 24499,9844 24499,9857 24499,9863 24499,9866 24496,9879 L 24348,10475 Z M 24515,10155 L 24584,9879 C 24593,9841 24596,9838 24643,9838 L 24785,9838 C 24882,9838 24907,9904 24907,9951 24907,10048 24810,10155 24675,10155 L 24515,10155 Z M 24464,10525 C 24449,10525 24446,10525 24439,10525 24430,10522 24427,10522 24427,10513 24427,10510 24427,10507 24430,10488 L 24508,10180 24715,10180 C 24822,10180 24844,10262 24844,10309 24844,10419 24747,10525 24615,10525 L 24464,10525 Z"/>
        </g>
       </g>
      </g>
      <g class="Group">
       <g class="com.sun.star.drawing.PolyPolygonShape">
        <g id="id52">
         <rect class="BoundingBox" stroke="none" fill="none" x="23950" y="3537" width="520" height="944"/>
        </g>
       </g>
       <g class="com.sun.star.drawing.ClosedBezierShape">
        <g id="id53">
         <rect class="BoundingBox" stroke="none" fill="none" x="23934" y="3534" width="457" height="959"/>
         <path fill="rgb(0,0,0)" stroke="none" d="M 24390,3575 C 24390,3553 24374,3534 24349,3534 24324,3534 24289,3559 24289,3594 24289,3616 24305,3632 24330,3632 24362,3632 24390,3603 24390,3575 Z M 24167,4322 C 24145,4407 24092,4470 24029,4470 24023,4470 24007,4470 23988,4457 24019,4451 24038,4423 24038,4401 24038,4382 24026,4360 23994,4360 23966,4360 23935,4385 23935,4426 23935,4470 23979,4492 24032,4492 24111,4492 24214,4435 24242,4325 L 24343,3920 C 24349,3898 24349,3883 24349,3880 24349,3817 24302,3776 24245,3776 24132,3776 24070,3936 24070,3949 24070,3958 24082,3958 24082,3958 24095,3958 24095,3958 24104,3936 24132,3867 24183,3801 24242,3801 24258,3801 24280,3804 24280,3851 24280,3876 24277,3889 24271,3908 L 24167,4322 Z"/>
        </g>
       </g>
      </g>
      <g class="Group">
       <g class="com.sun.star.drawing.PolyPolygonShape">
        <g id="id54">
         <rect class="BoundingBox" stroke="none" fill="none" x="27151" y="1695" width="611" height="767"/>
        </g>
       </g>
       <g class="com.sun.star.drawing.ClosedBezierShape">
        <g id="id55">
         <rect class="BoundingBox" stroke="none" fill="none" x="27211" y="1692" width="504" height="783"/>
         <path fill="rgb(0,0,0)" stroke="none" d="M 27469,1705 C 27469,1705 27469,1692 27453,1692 27428,1692 27349,1701 27318,1705 27309,1705 27299,1705 27299,1727 27299,1739 27309,1739 27324,1739 27378,1739 27381,1745 27381,1758 L 27378,1780 27215,2417 C 27211,2433 27211,2436 27211,2442 27211,2467 27233,2474 27243,2474 27258,2474 27274,2464 27280,2448 27287,2439 27337,2235 27343,2207 27381,2210 27472,2229 27472,2301 27472,2310 27472,2313 27469,2323 27466,2339 27466,2351 27466,2364 27466,2430 27510,2474 27566,2474 27601,2474 27629,2455 27654,2414 27682,2367 27695,2304 27695,2301 27695,2292 27685,2292 27682,2292 27670,2292 27670,2295 27666,2310 27644,2392 27616,2448 27569,2448 27547,2448 27535,2436 27535,2395 27535,2376 27538,2351 27541,2335 27547,2317 27547,2310 27547,2301 27547,2229 27478,2197 27381,2185 27415,2163 27453,2128 27478,2103 27531,2044 27582,1996 27635,1996 27644,1996 27644,1996 27648,1996 27660,2000 27660,2000 27670,2006 27673,2006 27673,2009 27673,2009 27623,2012 27610,2056 27610,2069 27610,2088 27623,2109 27654,2109 27682,2109 27714,2084 27714,2040 27714,2009 27688,1971 27638,1971 27607,1971 27557,1981 27478,2069 27440,2109 27397,2153 27353,2172 L 27469,1705 Z"/>
        </g>
       </g>
      </g>
      <g class="Group">
       <g class="com.sun.star.drawing.PolyPolygonShape">
        <g id="id56">
         <rect class="BoundingBox" stroke="none" fill="none" x="21893" y="10569" width="354" height="768"/>
        </g>
       </g>
       <g class="com.sun.star.drawing.ClosedBezierShape">
        <g id="id57">
         <rect class="BoundingBox" stroke="none" fill="none" x="21941" y="10566" width="240" height="783"/>
         <path fill="rgb(0,0,0)" stroke="none" d="M 22180,10579 C 22180,10579 22180,10566 22167,10566 22139,10566 22057,10576 22029,10579 22019,10579 22007,10579 22007,10601 22007,10613 22019,10613 22035,10613 22089,10613 22092,10623 22092,10632 L 22089,10654 21947,11206 C 21944,11219 21941,11228 21941,11244 21941,11307 21991,11348 22041,11348 22079,11348 22107,11326 22126,11285 22148,11244 22161,11178 22161,11175 22161,11166 22151,11166 22148,11166 22136,11166 22136,11169 22132,11184 22110,11257 22092,11323 22045,11323 22013,11323 22013,11288 22013,11272 22013,11244 22013,11241 22019,11219 L 22180,10579 Z"/>
        </g>
       </g>
      </g>
      <g class="Group">
       <g class="com.sun.star.drawing.PolyPolygonShape">
        <g id="id58">
         <rect class="BoundingBox" stroke="none" fill="none" x="26837" y="10861" width="665" height="479"/>
        </g>
       </g>
       <g class="com.sun.star.drawing.ClosedBezierShape">
        <g id="id59">
         <rect class="BoundingBox" stroke="none" fill="none" x="26869" y="10845" width="601" height="504"/>
         <path fill="rgb(0,0,0)" stroke="none" d="M 26935,11269 C 26932,11288 26926,11313 26926,11319 26926,11338 26941,11348 26957,11348 26970,11348 26992,11338 26998,11316 26998,11316 27014,11263 27020,11235 L 27042,11134 C 27051,11112 27058,11087 27061,11062 27067,11043 27076,11009 27076,11006 27092,10971 27152,10871 27258,10871 27309,10871 27318,10911 27318,10949 27318,11015 27262,11159 27246,11206 27236,11232 27233,11244 27233,11257 27233,11310 27274,11348 27324,11348 27428,11348 27469,11188 27469,11178 27469,11166 27459,11166 27456,11166 27447,11166 27447,11169 27440,11188 27419,11263 27381,11323 27327,11323 27309,11323 27299,11313 27299,11288 27299,11260 27312,11232 27321,11210 27343,11150 27387,11028 27387,10965 27387,10889 27340,10846 27262,10846 27161,10846 27108,10918 27089,10943 27083,10880 27036,10846 26985,10846 26935,10846 26913,10889 26904,10908 26885,10946 26869,11012 26869,11015 26869,11028 26882,11028 26882,11028 26894,11028 26894,11028 26901,11002 26919,10924 26941,10871 26982,10871 27004,10871 27017,10883 27017,10921 27017,10943 27014,10955 26998,11015 L 26935,11269 Z"/>
        </g>
       </g>
      </g>
      <g class="Group">
       <g class="com.sun.star.drawing.PolyPolygonShape">
        <g id="id60">
         <rect class="BoundingBox" stroke="none" fill="none" x="23950" y="7303" width="520" height="944"/>
        </g>
       </g>
       <g class="com.sun.star.drawing.ClosedBezierShape">
        <g id="id61">
         <rect class="BoundingBox" stroke="none" fill="none" x="23934" y="7300" width="457" height="959"/>
         <path fill="rgb(0,0,0)" stroke="none" d="M 24390,7341 C 24390,7319 24374,7301 24349,7301 24324,7301 24289,7326 24289,7360 24289,7382 24305,7398 24330,7398 24362,7398 24390,7370 24390,7341 Z M 24167,8088 C 24145,8173 24092,8236 24029,8236 24023,8236 24007,8236 23988,8223 24019,8217 24038,8189 24038,8167 24038,8148 24026,8126 23994,8126 23966,8126 23935,8151 23935,8192 23935,8236 23979,8258 24032,8258 24111,8258 24214,8201 24242,8091 L 24343,7687 C 24349,7665 24349,7649 24349,7646 24349,7583 24302,7542 24245,7542 24132,7542 24070,7702 24070,7715 24070,7724 24082,7724 24082,7724 24095,7724 24095,7724 24104,7702 24132,7633 24183,7567 24242,7567 24258,7567 24280,7570 24280,7618 24280,7643 24277,7655 24271,7674 L 24167,8088 Z"/>
        </g>
       </g>
      </g>
      <g class="com.sun.star.drawing.LineShape">
       <g id="id62">
        <rect class="BoundingBox" stroke="none" fill="none" x="24702" y="3016" width="129" height="2022"/>
        <path fill="none" stroke="rgb(0,0,0)" stroke-width="127" stroke-linejoin="round" d="M 24766,4973 L 24766,3080"/>
       </g>
      </g>
      <g class="com.sun.star.drawing.LineShape">
       <g id="id63">
        <rect class="BoundingBox" stroke="none" fill="none" x="18626" y="10185" width="2022" height="129"/>
        <path fill="none" stroke="rgb(0,0,0)" stroke-width="127" stroke-linejoin="round" d="M 18690,10249 L 20583,10249"/>
       </g>
      </g>
      <g class="Group">
       <g class="com.sun.star.drawing.PolyPolygonShape">
        <g id="id64">
         <rect class="BoundingBox" stroke="none" fill="none" x="19589" y="10569" width="353" height="768"/>
        </g>
       </g>
       <g class="com.sun.star.drawing.ClosedBezierShape">
        <g id="id65">
         <rect class="BoundingBox" stroke="none" fill="none" x="19636" y="10566" width="241" height="783"/>
         <path fill="rgb(0,0,0)" stroke="none" d="M 19875,10579 C 19875,10579 19875,10566 19863,10566 19834,10566 19753,10576 19724,10579 19715,10579 19702,10579 19702,10601 19702,10613 19715,10613 19731,10613 19784,10613 19787,10623 19787,10632 L 19784,10654 19643,11206 C 19640,11219 19637,11228 19637,11244 19637,11307 19687,11348 19737,11348 19775,11348 19803,11326 19822,11285 19844,11244 19856,11178 19856,11175 19856,11166 19847,11166 19844,11166 19831,11166 19831,11169 19828,11184 19806,11257 19787,11323 19740,11323 19709,11323 19709,11288 19709,11272 19709,11244 19709,11241 19715,11219 L 19875,10579 Z"/>
        </g>
       </g>
      </g>
      <g class="com.sun.star.drawing.ClosedBezierShape">
       <g id="id66">
        <rect class="BoundingBox" stroke="none" fill="none" x="15371" y="361" width="11166" height="11269"/>
        <path fill="rgb(255,249,174)" stroke="none" d="M 15468,11555 C 15458,11549 15451,11542 15445,11532 15439,11522 15437,11512 15437,11500 L 15437,3126 15437,539 15437,490 C 15437,478 15439,468 15445,458 15451,448 15458,441 15468,435 15478,429 15488,427 15500,427 L 26407,427 C 26419,427 26429,429 26439,435 26449,441 26456,448 26462,458 26468,468 26471,478 26471,490 L 26471,3126 C 26471,3138 26468,3148 26462,3158 26456,3168 26449,3175 26439,3181 26429,3187 26419,3190 26407,3190 L 18753,3190 18753,11500 C 18753,11512 18750,11522 18744,11532 18738,11542 18731,11549 18721,11555 18711,11561 18701,11564 18689,11564 L 15500,11564 C 15488,11564 15478,11561 15468,11555 Z"/>
        <path fill="none" stroke="rgb(0,0,0)" stroke-width="130" stroke-linejoin="round" d="M 15468,11555 C 15458,11549 15451,11542 15445,11532 15439,11522 15437,11512 15437,11500 L 15437,3126 15437,539 15437,490 C 15437,478 15439,468 15445,458 15451,448 15458,441 15468,435 15478,429 15488,427 15500,427 L 26407,427 C 26419,427 26429,429 26439,435 26449,441 26456,448 26462,458 26468,468 26471,478 26471,490 L 26471,3126 C 26471,3138 26468,3148 26462,3158 26456,3168 26449,3175 26439,3181 26429,3187 26419,3190 26407,3190 L 18753,3190 18753,11500 C 18753,11512 18750,11522 18744,11532 18738,11542 18731,11549 18721,11555 18711,11561 18701,11564 18689,11564 L 15500,11564 C 15488,11564 15478,11561 15468,11555 Z"/>
       </g>
      </g>
      <g class="Group">
       <g class="com.sun.star.drawing.PolyPolygonShape">
        <g id="id67">
         <rect class="BoundingBox" stroke="none" fill="none" x="16844" y="5167" width="573" height="693"/>
        </g>
       </g>
       <g class="com.sun.star.drawing.ClosedBezierShape">
        <g id="id68">
         <rect class="BoundingBox" stroke="none" fill="none" x="16878" y="5152" width="526" height="730"/>
         <path fill="rgb(0,0,0)" stroke="none" d="M 16882,5833 C 16879,5846 16879,5849 16879,5852 16879,5868 16891,5880 16910,5880 16932,5880 16948,5862 16948,5858 16954,5849 16988,5698 17020,5579 17042,5623 17076,5654 17130,5654 17258,5654 17403,5497 17403,5334 17403,5215 17331,5152 17249,5152 17139,5152 17023,5262 16992,5397 L 16882,5833 Z M 17130,5629 C 17051,5629 17032,5541 17032,5532 17032,5526 17039,5504 17042,5491 17073,5366 17083,5325 17108,5281 17155,5202 17211,5177 17246,5177 17287,5177 17321,5209 17321,5284 17321,5347 17290,5469 17261,5526 17224,5595 17170,5629 17130,5629 Z"/>
        </g>
       </g>
      </g>
      <g class="com.sun.star.drawing.LineShape">
       <g id="id69">
        <rect class="BoundingBox" stroke="none" fill="none" x="26345" y="1398" width="2022" height="129"/>
        <path fill="none" stroke="rgb(0,0,0)" stroke-width="127" stroke-linejoin="round" d="M 26409,1462 L 28302,1462"/>
       </g>
      </g>
      <g class="com.sun.star.drawing.RectangleShape">
       <g id="id70">
        <rect class="BoundingBox" stroke="none" fill="none" x="23060" y="8800" width="3318" height="2765"/>
        <path fill="rgb(255,249,174)" stroke="none" d="M 24719,8864 L 26313,8864 26313,11500 23124,11500 23124,8864 24719,8864 Z"/>
        <path fill="none" stroke="rgb(0,0,0)" stroke-width="127" stroke-linejoin="round" d="M 24719,8864 L 26313,8864 26313,11500 23124,11500 23124,8864 24719,8864 Z"/>
       </g>
      </g>
      <g class="com.sun.star.drawing.LineShape">
       <g id="id71">
        <rect class="BoundingBox" stroke="none" fill="none" x="26266" y="10185" width="2023" height="129"/>
        <path fill="none" stroke="rgb(0,0,0)" stroke-width="127" stroke-linejoin="round" d="M 28224,10249 L 26330,10249"/>
       </g>
      </g>
      <g class="com.sun.star.drawing.LineShape">
       <g id="id72">
        <rect class="BoundingBox" stroke="none" fill="none" x="21165" y="10185" width="2023" height="129"/>
        <path fill="none" stroke="rgb(0,0,0)" stroke-width="127" stroke-linejoin="round" d="M 23123,10249 L 21229,10249"/>
       </g>
      </g>
      <g class="com.sun.star.drawing.LineShape">
       <g id="id73">
        <rect class="BoundingBox" stroke="none" fill="none" x="24702" y="6938" width="129" height="2023"/>
        <path fill="none" stroke="rgb(0,0,0)" stroke-width="127" stroke-linejoin="round" d="M 24766,7002 L 24766,8896"/>
       </g>
      </g>
      <g class="Group">
       <g class="com.sun.star.drawing.PolyPolygonShape">
        <g id="id74">
         <rect class="BoundingBox" stroke="none" fill="none" x="24247" y="1375" width="831" height="756"/>
        </g>
       </g>
       <g class="com.sun.star.drawing.ClosedBezierShape">
        <g id="id75">
         <rect class="BoundingBox" stroke="none" fill="none" x="24285" y="1338" width="762" height="796"/>
         <path fill="rgb(0,0,0)" stroke="none" d="M 24446,2004 C 24402,2079 24358,2095 24307,2098 24295,2098 24285,2098 24285,2120 24285,2126 24292,2132 24301,2132 24329,2132 24364,2129 24395,2129 24433,2129 24471,2132 24505,2132 24511,2132 24527,2132 24527,2110 24527,2098 24518,2098 24508,2098 24483,2095 24458,2085 24458,2057 24458,2044 24464,2032 24474,2016 L 24555,1875 24835,1875 C 24838,1900 24854,2051 24854,2060 24854,2095 24794,2098 24772,2098 24756,2098 24747,2098 24747,2120 24747,2132 24759,2132 24763,2132 24806,2132 24854,2129 24901,2129 24929,2129 24998,2132 25026,2132 25032,2132 25045,2132 25045,2110 25045,2098 25036,2098 25020,2098 24951,2098 24951,2088 24948,2057 L 24882,1363 C 24879,1341 24879,1338 24860,1338 24841,1338 24838,1344 24832,1357 L 24446,2004 Z M 24577,1840 L 24797,1476 24832,1840 24577,1840 Z"/>
        </g>
       </g>
      </g>
      <g class="Group">
       <g class="com.sun.star.drawing.PolyPolygonShape">
        <g id="id76">
         <rect class="BoundingBox" stroke="none" fill="none" x="24169" y="9806" width="893" height="755"/>
        </g>
       </g>
       <g class="com.sun.star.drawing.ClosedBezierShape">
        <g id="id77">
         <rect class="BoundingBox" stroke="none" fill="none" x="24216" y="9803" width="793" height="758"/>
         <path fill="rgb(0,0,0)" stroke="none" d="M 24348,10475 C 24336,10516 24333,10525 24248,10525 24229,10525 24216,10525 24216,10547 24216,10560 24226,10560 24248,10560 L 24640,10560 C 24816,10560 24948,10428 24948,10321 24948,10240 24882,10177 24775,10164 24891,10143 25007,10061 25007,9957 25007,9876 24935,9804 24800,9804 L 24430,9804 C 24408,9804 24398,9804 24398,9826 24398,9838 24408,9838 24427,9838 24430,9838 24452,9838 24471,9841 24489,9841 24499,9844 24499,9857 24499,9863 24499,9866 24496,9879 L 24348,10475 Z M 24515,10155 L 24584,9879 C 24593,9841 24596,9838 24643,9838 L 24785,9838 C 24882,9838 24907,9904 24907,9951 24907,10048 24810,10155 24675,10155 L 24515,10155 Z M 24464,10525 C 24449,10525 24446,10525 24439,10525 24430,10522 24427,10522 24427,10513 24427,10510 24427,10507 24430,10488 L 24508,10180 24715,10180 C 24822,10180 24844,10262 24844,10309 24844,10419 24747,10525 24615,10525 L 24464,10525 Z"/>
        </g>
       </g>
      </g>
      <g class="Group">
       <g class="com.sun.star.drawing.PolyPolygonShape">
        <g id="id78">
         <rect class="BoundingBox" stroke="none" fill="none" x="23950" y="3537" width="520" height="944"/>
        </g>
       </g>
       <g class="com.sun.star.drawing.ClosedBezierShape">
        <g id="id79">
         <rect class="BoundingBox" stroke="none" fill="none" x="23934" y="3534" width="457" height="959"/>
         <path fill="rgb(0,0,0)" stroke="none" d="M 24390,3575 C 24390,3553 24374,3534 24349,3534 24324,3534 24289,3559 24289,3594 24289,3616 24305,3632 24330,3632 24362,3632 24390,3603 24390,3575 Z M 24167,4322 C 24145,4407 24092,4470 24029,4470 24023,4470 24007,4470 23988,4457 24019,4451 24038,4423 24038,4401 24038,4382 24026,4360 23994,4360 23966,4360 23935,4385 23935,4426 23935,4470 23979,4492 24032,4492 24111,4492 24214,4435 24242,4325 L 24343,3920 C 24349,3898 24349,3883 24349,3880 24349,3817 24302,3776 24245,3776 24132,3776 24070,3936 24070,3949 24070,3958 24082,3958 24082,3958 24095,3958 24095,3958 24104,3936 24132,3867 24183,3801 24242,3801 24258,3801 24280,3804 24280,3851 24280,3876 24277,3889 24271,3908 L 24167,4322 Z"/>
        </g>
       </g>
      </g>
      <g class="Group">
       <g class="com.sun.star.drawing.PolyPolygonShape">
        <g id="id80">
         <rect class="BoundingBox" stroke="none" fill="none" x="27151" y="1695" width="611" height="767"/>
        </g>
       </g>
       <g class="com.sun.star.drawing.ClosedBezierShape">
        <g id="id81">
         <rect class="BoundingBox" stroke="none" fill="none" x="27211" y="1692" width="504" height="783"/>
         <path fill="rgb(0,0,0)" stroke="none" d="M 27469,1705 C 27469,1705 27469,1692 27453,1692 27428,1692 27349,1701 27318,1705 27309,1705 27299,1705 27299,1727 27299,1739 27309,1739 27324,1739 27378,1739 27381,1745 27381,1758 L 27378,1780 27215,2417 C 27211,2433 27211,2436 27211,2442 27211,2467 27233,2474 27243,2474 27258,2474 27274,2464 27280,2448 27287,2439 27337,2235 27343,2207 27381,2210 27472,2229 27472,2301 27472,2310 27472,2313 27469,2323 27466,2339 27466,2351 27466,2364 27466,2430 27510,2474 27566,2474 27601,2474 27629,2455 27654,2414 27682,2367 27695,2304 27695,2301 27695,2292 27685,2292 27682,2292 27670,2292 27670,2295 27666,2310 27644,2392 27616,2448 27569,2448 27547,2448 27535,2436 27535,2395 27535,2376 27538,2351 27541,2335 27547,2317 27547,2310 27547,2301 27547,2229 27478,2197 27381,2185 27415,2163 27453,2128 27478,2103 27531,2044 27582,1996 27635,1996 27644,1996 27644,1996 27648,1996 27660,2000 27660,2000 27670,2006 27673,2006 27673,2009 27673,2009 27623,2012 27610,2056 27610,2069 27610,2088 27623,2109 27654,2109 27682,2109 27714,2084 27714,2040 27714,2009 27688,1971 27638,1971 27607,1971 27557,1981 27478,2069 27440,2109 27397,2153 27353,2172 L 27469,1705 Z"/>
        </g>
       </g>
      </g>
      <g class="Group">
       <g class="com.sun.star.drawing.PolyPolygonShape">
        <g id="id82">
         <rect class="BoundingBox" stroke="none" fill="none" x="21893" y="10569" width="354" height="768"/>
        </g>
       </g>
       <g class="com.sun.star.drawing.ClosedBezierShape">
        <g id="id83">
         <rect class="BoundingBox" stroke="none" fill="none" x="21941" y="10566" width="240" height="783"/>
         <path fill="rgb(0,0,0)" stroke="none" d="M 22180,10579 C 22180,10579 22180,10566 22167,10566 22139,10566 22057,10576 22029,10579 22019,10579 22007,10579 22007,10601 22007,10613 22019,10613 22035,10613 22089,10613 22092,10623 22092,10632 L 22089,10654 21947,11206 C 21944,11219 21941,11228 21941,11244 21941,11307 21991,11348 22041,11348 22079,11348 22107,11326 22126,11285 22148,11244 22161,11178 22161,11175 22161,11166 22151,11166 22148,11166 22136,11166 22136,11169 22132,11184 22110,11257 22092,11323 22045,11323 22013,11323 22013,11288 22013,11272 22013,11244 22013,11241 22019,11219 L 22180,10579 Z"/>
        </g>
       </g>
      </g>
      <g class="Group">
       <g class="com.sun.star.drawing.PolyPolygonShape">
        <g id="id84">
         <rect class="BoundingBox" stroke="none" fill="none" x="26837" y="10861" width="665" height="479"/>
        </g>
       </g>
       <g class="com.sun.star.drawing.ClosedBezierShape">
        <g id="id85">
         <rect class="BoundingBox" stroke="none" fill="none" x="26869" y="10845" width="601" height="504"/>
         <path fill="rgb(0,0,0)" stroke="none" d="M 26935,11269 C 26932,11288 26926,11313 26926,11319 26926,11338 26941,11348 26957,11348 26970,11348 26992,11338 26998,11316 26998,11316 27014,11263 27020,11235 L 27042,11134 C 27051,11112 27058,11087 27061,11062 27067,11043 27076,11009 27076,11006 27092,10971 27152,10871 27258,10871 27309,10871 27318,10911 27318,10949 27318,11015 27262,11159 27246,11206 27236,11232 27233,11244 27233,11257 27233,11310 27274,11348 27324,11348 27428,11348 27469,11188 27469,11178 27469,11166 27459,11166 27456,11166 27447,11166 27447,11169 27440,11188 27419,11263 27381,11323 27327,11323 27309,11323 27299,11313 27299,11288 27299,11260 27312,11232 27321,11210 27343,11150 27387,11028 27387,10965 27387,10889 27340,10846 27262,10846 27161,10846 27108,10918 27089,10943 27083,10880 27036,10846 26985,10846 26935,10846 26913,10889 26904,10908 26885,10946 26869,11012 26869,11015 26869,11028 26882,11028 26882,11028 26894,11028 26894,11028 26901,11002 26919,10924 26941,10871 26982,10871 27004,10871 27017,10883 27017,10921 27017,10943 27014,10955 26998,11015 L 26935,11269 Z"/>
        </g>
       </g>
      </g>
      <g class="Group">
       <g class="com.sun.star.drawing.PolyPolygonShape">
        <g id="id86">
         <rect class="BoundingBox" stroke="none" fill="none" x="23950" y="7303" width="520" height="944"/>
        </g>
       </g>
       <g class="com.sun.star.drawing.ClosedBezierShape">
        <g id="id87">
         <rect class="BoundingBox" stroke="none" fill="none" x="23934" y="7300" width="457" height="959"/>
         <path fill="rgb(0,0,0)" stroke="none" d="M 24390,7341 C 24390,7319 24374,7301 24349,7301 24324,7301 24289,7326 24289,7360 24289,7382 24305,7398 24330,7398 24362,7398 24390,7370 24390,7341 Z M 24167,8088 C 24145,8173 24092,8236 24029,8236 24023,8236 24007,8236 23988,8223 24019,8217 24038,8189 24038,8167 24038,8148 24026,8126 23994,8126 23966,8126 23935,8151 23935,8192 23935,8236 23979,8258 24032,8258 24111,8258 24214,8201 24242,8091 L 24343,7687 C 24349,7665 24349,7649 24349,7646 24349,7583 24302,7542 24245,7542 24132,7542 24070,7702 24070,7715 24070,7724 24082,7724 24082,7724 24095,7724 24095,7724 24104,7702 24132,7633 24183,7567 24242,7567 24258,7567 24280,7570 24280,7618 24280,7643 24277,7655 24271,7674 L 24167,8088 Z"/>
        </g>
       </g>
      </g>
      <g class="com.sun.star.drawing.RectangleShape">
       <g id="id88">
        <rect class="BoundingBox" stroke="none" fill="none" x="30953" y="475" width="3318" height="11090"/>
        <path fill="rgb(255,249,174)" stroke="none" d="M 32612,11500 L 31017,11500 31017,539 34206,539 34206,11500 32612,11500 Z"/>
        <path fill="none" stroke="rgb(0,0,0)" stroke-width="127" stroke-linejoin="round" d="M 32612,11500 L 31017,11500 31017,539 34206,539 34206,11500 32612,11500 Z"/>
       </g>
      </g>
      <g class="Group">
       <g class="com.sun.star.drawing.PolyPolygonShape">
        <g id="id89">
         <rect class="BoundingBox" stroke="none" fill="none" x="32361" y="5167" width="573" height="693"/>
        </g>
       </g>
       <g class="com.sun.star.drawing.ClosedBezierShape">
        <g id="id90">
         <rect class="BoundingBox" stroke="none" fill="none" x="32395" y="5152" width="526" height="730"/>
         <path fill="rgb(0,0,0)" stroke="none" d="M 32399,5833 C 32396,5846 32396,5849 32396,5852 32396,5868 32408,5880 32427,5880 32449,5880 32465,5862 32465,5858 32471,5849 32505,5698 32537,5579 32559,5623 32593,5654 32647,5654 32775,5654 32920,5497 32920,5334 32920,5215 32848,5152 32766,5152 32656,5152 32540,5262 32509,5397 L 32399,5833 Z M 32647,5629 C 32568,5629 32549,5541 32549,5532 32549,5526 32556,5504 32559,5491 32590,5366 32600,5325 32625,5281 32672,5202 32728,5177 32763,5177 32804,5177 32838,5209 32838,5284 32838,5347 32807,5469 32778,5526 32741,5595 32687,5629 32647,5629 Z"/>
        </g>
       </g>
      </g>
      <g class="com.sun.star.drawing.LineShape">
       <g id="id91">
        <rect class="BoundingBox" stroke="none" fill="none" x="34142" y="1398" width="2022" height="129"/>
        <path fill="none" stroke="rgb(0,0,0)" stroke-width="127" stroke-linejoin="round" d="M 34206,1462 L 36099,1462"/>
       </g>
      </g>
      <g class="com.sun.star.drawing.LineShape">
       <g id="id92">
        <rect class="BoundingBox" stroke="none" fill="none" x="34143" y="10185" width="2022" height="129"/>
        <path fill="none" stroke="rgb(0,0,0)" stroke-width="127" stroke-linejoin="round" d="M 34207,10249 L 36100,10249"/>
       </g>
      </g>
      <g class="Group">
       <g class="com.sun.star.drawing.PolyPolygonShape">
        <g id="id93">
         <rect class="BoundingBox" stroke="none" fill="none" x="35113" y="1847" width="611" height="767"/>
        </g>
       </g>
       <g class="com.sun.star.drawing.ClosedBezierShape">
        <g id="id94">
         <rect class="BoundingBox" stroke="none" fill="none" x="35173" y="1844" width="504" height="783"/>
         <path fill="rgb(0,0,0)" stroke="none" d="M 35431,1857 C 35431,1857 35431,1844 35415,1844 35390,1844 35311,1853 35280,1857 35271,1857 35261,1857 35261,1879 35261,1891 35271,1891 35286,1891 35340,1891 35343,1897 35343,1910 L 35340,1932 35177,2569 C 35173,2585 35173,2588 35173,2594 35173,2619 35195,2626 35205,2626 35220,2626 35236,2616 35242,2600 35249,2591 35299,2387 35305,2359 35343,2362 35434,2381 35434,2453 35434,2462 35434,2465 35431,2475 35428,2491 35428,2503 35428,2516 35428,2582 35472,2626 35528,2626 35563,2626 35591,2607 35616,2566 35644,2519 35657,2456 35657,2453 35657,2444 35647,2444 35644,2444 35632,2444 35632,2447 35628,2462 35606,2544 35578,2600 35531,2600 35509,2600 35497,2588 35497,2547 35497,2528 35500,2503 35503,2487 35509,2469 35509,2462 35509,2453 35509,2381 35440,2349 35343,2337 35377,2315 35415,2280 35440,2255 35493,2196 35544,2148 35597,2148 35606,2148 35606,2148 35610,2148 35622,2152 35622,2152 35632,2158 35635,2158 35635,2161 35635,2161 35585,2164 35572,2208 35572,2221 35572,2240 35585,2261 35616,2261 35644,2261 35676,2236 35676,2192 35676,2161 35650,2123 35600,2123 35569,2123 35519,2133 35440,2221 35402,2261 35359,2305 35315,2324 L 35431,1857 Z"/>
        </g>
       </g>
      </g>
      <g class="Group">
       <g class="com.sun.star.drawing.PolyPolygonShape">
        <g id="id95">
         <rect class="BoundingBox" stroke="none" fill="none" x="34799" y="11013" width="665" height="479"/>
        </g>
       </g>
       <g class="com.sun.star.drawing.ClosedBezierShape">
        <g id="id96">
         <rect class="BoundingBox" stroke="none" fill="none" x="34831" y="10997" width="601" height="504"/>
         <path fill="rgb(0,0,0)" stroke="none" d="M 34897,11421 C 34894,11440 34888,11465 34888,11471 34888,11490 34903,11500 34919,11500 34932,11500 34954,11490 34960,11468 34960,11468 34976,11415 34982,11387 L 35004,11286 C 35013,11264 35020,11239 35023,11214 35029,11195 35038,11161 35038,11158 35054,11123 35114,11023 35220,11023 35271,11023 35280,11063 35280,11101 35280,11167 35224,11311 35208,11358 35198,11384 35195,11396 35195,11409 35195,11462 35236,11500 35286,11500 35390,11500 35431,11340 35431,11330 35431,11318 35421,11318 35418,11318 35409,11318 35409,11321 35402,11340 35381,11415 35343,11475 35289,11475 35271,11475 35261,11465 35261,11440 35261,11412 35274,11384 35283,11362 35305,11302 35349,11180 35349,11117 35349,11041 35302,10998 35224,10998 35123,10998 35070,11070 35051,11095 35045,11032 34998,10998 34947,10998 34897,10998 34875,11041 34866,11060 34847,11098 34831,11164 34831,11167 34831,11180 34844,11180 34844,11180 34856,11180 34856,11180 34863,11154 34881,11076 34903,11023 34944,11023 34966,11023 34979,11035 34979,11073 34979,11095 34976,11107 34960,11167 L 34897,11421 Z"/>
        </g>
       </g>
      </g>
      <g class="com.sun.star.drawing.CustomShape">
       <g id="id97">
        <rect class="BoundingBox" stroke="none" fill="none" x="12499" y="4999" width="2004" height="2504"/>
        <path fill="rgb(153,204,255)" stroke="none" d="M 12500,5625 L 14000,5625 14000,5000 14501,6250 14000,7501 14000,6875 12500,6875 12500,5625 Z M 12500,5000 L 12500,5000 Z M 14501,7501 L 14501,7501 Z"/>
        <path fill="none" stroke="rgb(0,0,0)" d="M 12500,5625 L 14000,5625 14000,5000 14501,6250 14000,7501 14000,6875 12500,6875 12500,5625 Z"/>
        <path fill="none" stroke="rgb(0,0,0)" d="M 12500,5000 L 12500,5000 Z"/>
        <path fill="none" stroke="rgb(0,0,0)" d="M 14501,7501 L 14501,7501 Z"/>
       </g>
      </g>
      <g class="com.sun.star.drawing.CustomShape">
       <g id="id98">
        <rect class="BoundingBox" stroke="none" fill="none" x="28499" y="4999" width="2004" height="2504"/>
        <path fill="rgb(153,204,255)" stroke="none" d="M 28500,5625 L 30000,5625 30000,5000 30501,6250 30000,7501 30000,6875 28500,6875 28500,5625 Z M 28500,5000 L 28500,5000 Z M 30501,7501 L 30501,7501 Z"/>
        <path fill="none" stroke="rgb(0,0,0)" d="M 28500,5625 L 30000,5625 30000,5000 30501,6250 30000,7501 30000,6875 28500,6875 28500,5625 Z"/>
        <path fill="none" stroke="rgb(0,0,0)" d="M 28500,5000 L 28500,5000 Z"/>
        <path fill="none" stroke="rgb(0,0,0)" d="M 30501,7501 L 30501,7501 Z"/>
       </g>
      </g>
     </g>
    </g>
   </g>
  </g>
 </g>
</svg>