<?xml version="1.0" encoding="UTF-8"?>
<!DOCTYPE svg PUBLIC "-//W3C//DTD SVG 1.1//EN" "http://www.w3.org/Graphics/SVG/1.1/DTD/svg11.dtd">
<svg version="1.2" width="369.98mm" height="112.67mm" viewBox="-1334 435 36998 11267" preserveAspectRatio="xMidYMid" fill-rule="evenodd" stroke-width="28.222" stroke-linejoin="round" xmlns="http://www.w3.org/2000/svg" xmlns:ooo="http://xml.openoffice.org/svg/export" xmlns:xlink="http://www.w3.org/1999/xlink" xmlns:presentation="http://sun.com/xmlns/staroffice/presentation" xmlns:smil="http://www.w3.org/2001/SMIL20/" xmlns:anim="urn:oasis:names:tc:opendocument:xmlns:animation:1.0" xml:space="preserve">
 <defs class="ClipPathGroup">
  <clipPath id="presentation_clip_path" clipPathUnits="userSpaceOnUse">
   <rect x="-1334" y="435" width="36998" height="11267"/>
  </clipPath>
  <clipPath id="presentation_clip_path_shrink" clipPathUnits="userSpaceOnUse">
   <rect x="-1298" y="446" width="36925" height="11245"/>
  </clipPath>
 </defs>
 <defs class="TextShapeIndex">
  <g ooo:slide="id1" ooo:id-list="id3 id4 id5 id6 id7 id8 id9 id10 id11 id12 id13 id14 id15 id16 id17 id18 id19 id20 id21 id22 id23 id24 id25 id26 id27 id28 id29 id30 id31 id32 id33 id34 id35 id36 id37 id38 id39 id40 id41 id42 id43 id44 id45 id46 id47 id48 id49 id50 id51 id52 id53 id54 id55 id56 id57 id58 id59 id60 id61 id62 id63 id64 id65 id66 id67 id68 id69 id70 id71 id72 id73 id74 id75 id76 id77 id78 id79 id80 id81 id82 id83 id84 id85"/>
 </defs>
 <defs class="EmbeddedBulletChars">
  <g id="bullet-char-template-57356" transform="scale(0.00048828125,-0.00048828125)">
   <path d="M 580,1141 L 1163,571 580,0 -4,571 580,1141 Z"/>
  </g>
  <g id="bullet-char-template-57354" transform="scale(0.00048828125,-0.00048828125)">
   <path d="M 8,1128 L 1137,1128 1137,0 8,0 8,1128 Z"/>
  </g>
  <g id="bullet-char-template-10146" transform="scale(0.00048828125,-0.00048828125)">
   <path d="M 174,0 L 602,739 174,1481 1456,739 174,0 Z M 1358,739 L 309,1346 659,739 1358,739 Z"/>
  </g>
  <g id="bullet-char-template-10132" transform="scale(0.00048828125,-0.00048828125)">
   <path d="M 2015,739 L 1276,0 717,0 1260,543 174,543 174,936 1260,936 717,1481 1274,1481 2015,739 Z"/>
  </g>
  <g id="bullet-char-template-10007" transform="scale(0.00048828125,-0.00048828125)">
   <path d="M 0,-2 C -7,14 -16,27 -25,37 L 356,567 C 262,823 215,952 215,954 215,979 228,992 255,992 264,992 276,990 289,987 310,991 331,999 354,1012 L 381,999 492,748 772,1049 836,1024 860,1049 C 881,1039 901,1025 922,1006 886,937 835,863 770,784 769,783 710,716 594,584 L 774,223 C 774,196 753,168 711,139 L 727,119 C 717,90 699,76 672,76 641,76 570,178 457,381 L 164,-76 C 142,-110 111,-127 72,-127 30,-127 9,-110 8,-76 1,-67 -2,-52 -2,-32 -2,-23 -1,-13 0,-2 Z"/>
  </g>
  <g id="bullet-char-template-10004" transform="scale(0.00048828125,-0.00048828125)">
   <path d="M 285,-33 C 182,-33 111,30 74,156 52,228 41,333 41,471 41,549 55,616 82,672 116,743 169,778 240,778 293,778 328,747 346,684 L 369,508 C 377,444 397,411 428,410 L 1163,1116 C 1174,1127 1196,1133 1229,1133 1271,1133 1292,1118 1292,1087 L 1292,965 C 1292,929 1282,901 1262,881 L 442,47 C 390,-6 338,-33 285,-33 Z"/>
  </g>
  <g id="bullet-char-template-9679" transform="scale(0.00048828125,-0.00048828125)">
   <path d="M 813,0 C 632,0 489,54 383,161 276,268 223,411 223,592 223,773 276,916 383,1023 489,1130 632,1184 813,1184 992,1184 1136,1130 1245,1023 1353,916 1407,772 1407,592 1407,412 1353,268 1245,161 1136,54 992,0 813,0 Z"/>
  </g>
  <g id="bullet-char-template-8226" transform="scale(0.00048828125,-0.00048828125)">
   <path d="M 346,457 C 273,457 209,483 155,535 101,586 74,649 74,723 74,796 101,859 155,911 209,963 273,989 346,989 419,989 480,963 531,910 582,859 608,796 608,723 608,648 583,586 532,535 482,483 420,457 346,457 Z"/>
  </g>
  <g id="bullet-char-template-8211" transform="scale(0.00048828125,-0.00048828125)">
   <path d="M -4,459 L 1135,459 1135,606 -4,606 -4,459 Z"/>
  </g>
  <g id="bullet-char-template-61548" transform="scale(0.00048828125,-0.00048828125)">
   <path d="M 173,740 C 173,903 231,1043 346,1159 462,1274 601,1332 765,1332 928,1332 1067,1274 1183,1159 1299,1043 1357,903 1357,740 1357,577 1299,437 1183,322 1067,206 928,148 765,148 601,148 462,206 346,322 231,437 173,577 173,740 Z"/>
  </g>
 </defs>
 <defs class="TextEmbeddedBitmaps"/>
 <g class="SlideGroup">
  <g>
   <g id="container-id1">
    <g id="id1" class="Slide" clip-path="url(#presentation_clip_path)">
     <g class="Page">
      <g class="com.sun.star.drawing.LineShape">
       <g id="id3">
        <rect class="BoundingBox" stroke="none" fill="none" x="17993" y="3153" width="129" height="2022"/>
        <path fill="none" stroke="rgb(0,0,0)" stroke-width="127" stroke-linejoin="round" d="M 18057,5110 L 18057,3217"/>
       </g>
      </g>
      <g class="com.sun.star.drawing.RectangleShape">
       <g id="id4">
        <rect class="BoundingBox" stroke="none" fill="none" x="8436" y="485" width="3318" height="11090"/>
        <path fill="rgb(255,249,174)" stroke="none" d="M 10095,11510 L 8500,11510 8500,549 11689,549 11689,11510 10095,11510 Z"/>
        <path fill="none" stroke="rgb(0,0,0)" stroke-width="127" stroke-linejoin="round" d="M 10095,11510 L 8500,11510 8500,549 11689,549 11689,11510 10095,11510 Z"/>
       </g>
      </g>
      <g class="Group">
       <g class="com.sun.star.drawing.PolyPolygonShape">
        <g id="id5">
         <rect class="BoundingBox" stroke="none" fill="none" x="9844" y="5177" width="573" height="693"/>
        </g>
       </g>
       <g class="com.sun.star.drawing.ClosedBezierShape">
        <g id="id6">
         <rect class="BoundingBox" stroke="none" fill="none" x="9878" y="5162" width="526" height="730"/>
         <path fill="rgb(0,0,0)" stroke="none" d="M 9882,5843 C 9879,5856 9879,5859 9879,5862 9879,5878 9891,5890 9910,5890 9932,5890 9948,5872 9948,5868 9954,5859 9988,5708 10020,5589 10042,5633 10076,5664 10130,5664 10258,5664 10403,5507 10403,5344 10403,5225 10331,5162 10249,5162 10139,5162 10023,5272 9992,5407 L 9882,5843 Z M 10130,5639 C 10051,5639 10032,5551 10032,5542 10032,5536 10039,5514 10042,5501 10073,5376 10083,5335 10108,5291 10155,5212 10211,5187 10246,5187 10287,5187 10321,5219 10321,5294 10321,5357 10290,5479 10261,5536 10224,5605 10170,5639 10130,5639 Z"/>
        </g>
       </g>
      </g>
      <g class="com.sun.star.drawing.LineShape">
       <g id="id7">
        <rect class="BoundingBox" stroke="none" fill="none" x="6525" y="1408" width="2022" height="129"/>
        <path fill="none" stroke="rgb(0,0,0)" stroke-width="127" stroke-linejoin="round" d="M 6589,1472 L 8482,1472"/>
       </g>
      </g>
      <g class="com.sun.star.drawing.LineShape">
       <g id="id8">
        <rect class="BoundingBox" stroke="none" fill="none" x="6526" y="10195" width="2022" height="129"/>
        <path fill="none" stroke="rgb(0,0,0)" stroke-width="127" stroke-linejoin="round" d="M 6590,10259 L 8483,10259"/>
       </g>
      </g>
      <g class="com.sun.star.drawing.RectangleShape">
       <g id="id9">
        <rect class="BoundingBox" stroke="none" fill="none" x="654" y="436" width="3318" height="2765"/>
        <path fill="rgb(255,249,174)" stroke="none" d="M 2313,3136 L 718,3136 718,500 3907,500 3907,3136 2313,3136 Z"/>
        <path fill="none" stroke="rgb(0,0,0)" stroke-width="127" stroke-linejoin="round" d="M 2313,3136 L 718,3136 718,500 3907,500 3907,3136 2313,3136 Z"/>
       </g>
      </g>
      <g class="com.sun.star.drawing.LineShape">
       <g id="id10">
        <rect class="BoundingBox" stroke="none" fill="none" x="-1256" y="1408" width="2022" height="129"/>
        <path fill="none" stroke="rgb(0,0,0)" stroke-width="127" stroke-linejoin="round" d="M -1192,1472 L 701,1472"/>
       </g>
      </g>
      <g class="com.sun.star.drawing.LineShape">
       <g id="id11">
        <rect class="BoundingBox" stroke="none" fill="none" x="3845" y="1408" width="2022" height="129"/>
        <path fill="none" stroke="rgb(0,0,0)" stroke-width="127" stroke-linejoin="round" d="M 3909,1472 L 5802,1472"/>
       </g>
      </g>
      <g class="com.sun.star.drawing.LineShape">
       <g id="id12">
        <rect class="BoundingBox" stroke="none" fill="none" x="2202" y="3026" width="129" height="2022"/>
        <path fill="none" stroke="rgb(0,0,0)" stroke-width="127" stroke-linejoin="round" d="M 2266,4983 L 2266,3090"/>
       </g>
      </g>
      <g class="com.sun.star.drawing.RectangleShape">
       <g id="id13">
        <rect class="BoundingBox" stroke="none" fill="none" x="560" y="8810" width="3318" height="2765"/>
        <path fill="rgb(255,249,174)" stroke="none" d="M 2218,8874 L 3813,8874 3813,11510 624,11510 624,8874 2218,8874 Z"/>
        <path fill="none" stroke="rgb(0,0,0)" stroke-width="127" stroke-linejoin="round" d="M 2218,8874 L 3813,8874 3813,11510 624,11510 624,8874 2218,8874 Z"/>
       </g>
      </g>
      <g class="com.sun.star.drawing.LineShape">
       <g id="id14">
        <rect class="BoundingBox" stroke="none" fill="none" x="3766" y="10195" width="2023" height="129"/>
        <path fill="none" stroke="rgb(0,0,0)" stroke-width="127" stroke-linejoin="round" d="M 5724,10259 L 3830,10259"/>
       </g>
      </g>
      <g class="com.sun.star.drawing.LineShape">
       <g id="id15">
        <rect class="BoundingBox" stroke="none" fill="none" x="-1335" y="10195" width="2023" height="129"/>
        <path fill="none" stroke="rgb(0,0,0)" stroke-width="127" stroke-linejoin="round" d="M 623,10259 L -1271,10259"/>
       </g>
      </g>
      <g class="com.sun.star.drawing.LineShape">
       <g id="id16">
        <rect class="BoundingBox" stroke="none" fill="none" x="2202" y="6948" width="129" height="2023"/>
        <path fill="none" stroke="rgb(0,0,0)" stroke-width="127" stroke-linejoin="round" d="M 2266,7012 L 2266,8906"/>
       </g>
      </g>
      <g class="Group">
       <g class="com.sun.star.drawing.PolyPolygonShape">
        <g id="id17">
         <rect class="BoundingBox" stroke="none" fill="none" x="1747" y="1385" width="831" height="756"/>
        </g>
       </g>
       <g class="com.sun.star.drawing.ClosedBezierShape">
        <g id="id18">
         <rect class="BoundingBox" stroke="none" fill="none" x="1785" y="1348" width="762" height="796"/>
         <path fill="rgb(0,0,0)" stroke="none" d="M 1946,2014 C 1902,2089 1858,2105 1807,2108 1795,2108 1785,2108 1785,2130 1785,2136 1792,2142 1801,2142 1829,2142 1864,2139 1895,2139 1933,2139 1971,2142 2005,2142 2011,2142 2027,2142 2027,2120 2027,2108 2018,2108 2008,2108 1983,2105 1958,2095 1958,2067 1958,2054 1964,2042 1974,2026 L 2055,1885 2335,1885 C 2338,1910 2354,2061 2354,2070 2354,2105 2294,2108 2272,2108 2256,2108 2247,2108 2247,2130 2247,2142 2259,2142 2263,2142 2306,2142 2354,2139 2401,2139 2429,2139 2498,2142 2526,2142 2532,2142 2545,2142 2545,2120 2545,2108 2536,2108 2520,2108 2451,2108 2451,2098 2448,2067 L 2382,1373 C 2379,1351 2379,1348 2360,1348 2341,1348 2338,1354 2332,1367 L 1946,2014 Z M 2077,1850 L 2297,1486 2332,1850 2077,1850 Z"/>
        </g>
       </g>
      </g>
      <g class="Group">
       <g class="com.sun.star.drawing.PolyPolygonShape">
        <g id="id19">
         <rect class="BoundingBox" stroke="none" fill="none" x="1669" y="9816" width="893" height="755"/>
        </g>
       </g>
       <g class="com.sun.star.drawing.ClosedBezierShape">
        <g id="id20">
         <rect class="BoundingBox" stroke="none" fill="none" x="1716" y="9813" width="793" height="758"/>
         <path fill="rgb(0,0,0)" stroke="none" d="M 1848,10485 C 1836,10526 1833,10535 1748,10535 1729,10535 1716,10535 1716,10557 1716,10570 1726,10570 1748,10570 L 2140,10570 C 2316,10570 2448,10438 2448,10331 2448,10250 2382,10187 2275,10174 2391,10153 2507,10071 2507,9967 2507,9886 2435,9814 2300,9814 L 1930,9814 C 1908,9814 1898,9814 1898,9836 1898,9848 1908,9848 1927,9848 1930,9848 1952,9848 1971,9851 1989,9851 1999,9854 1999,9867 1999,9873 1999,9876 1996,9889 L 1848,10485 Z M 2015,10165 L 2084,9889 C 2093,9851 2096,9848 2143,9848 L 2285,9848 C 2382,9848 2407,9914 2407,9961 2407,10058 2310,10165 2175,10165 L 2015,10165 Z M 1964,10535 C 1949,10535 1946,10535 1939,10535 1930,10532 1927,10532 1927,10523 1927,10520 1927,10517 1930,10498 L 2008,10190 2215,10190 C 2322,10190 2344,10272 2344,10319 2344,10429 2247,10535 2115,10535 L 1964,10535 Z"/>
        </g>
       </g>
      </g>
      <g class="Group">
       <g class="com.sun.star.drawing.PolyPolygonShape">
        <g id="id21">
         <rect class="BoundingBox" stroke="none" fill="none" x="-842" y="1742" width="385" height="730"/>
        </g>
       </g>
       <g class="com.sun.star.drawing.ClosedBezierShape">
        <g id="id22">
         <rect class="BoundingBox" stroke="none" fill="none" x="-811" y="1739" width="297" height="746"/>
         <path fill="rgb(0,0,0)" stroke="none" d="M -524,1781 C -524,1759 -540,1740 -568,1740 -597,1740 -628,1768 -628,1799 -628,1818 -612,1837 -584,1837 -559,1837 -524,1812 -524,1781 Z M -609,2195 C -597,2163 -597,2160 -587,2132 -578,2110 -572,2094 -572,2072 -572,2022 -606,1981 -663,1981 -769,1981 -810,2141 -810,2154 -810,2163 -798,2163 -798,2163 -785,2163 -785,2160 -779,2145 -747,2041 -703,2006 -666,2006 -656,2006 -637,2006 -637,2041 -637,2066 -647,2088 -650,2101 -659,2129 -710,2258 -728,2305 -738,2333 -754,2371 -754,2393 -754,2446 -716,2484 -663,2484 -556,2484 -515,2323 -515,2314 -515,2302 -524,2302 -528,2302 -540,2302 -540,2305 -546,2323 -565,2393 -603,2458 -659,2458 -678,2458 -688,2449 -688,2424 -688,2396 -678,2380 -653,2311 L -609,2195 Z"/>
        </g>
       </g>
      </g>
      <g class="Group">
       <g class="com.sun.star.drawing.PolyPolygonShape">
        <g id="id23">
         <rect class="BoundingBox" stroke="none" fill="none" x="1450" y="3547" width="520" height="944"/>
        </g>
       </g>
       <g class="com.sun.star.drawing.ClosedBezierShape">
        <g id="id24">
         <rect class="BoundingBox" stroke="none" fill="none" x="1434" y="3544" width="457" height="959"/>
         <path fill="rgb(0,0,0)" stroke="none" d="M 1890,3585 C 1890,3563 1874,3544 1849,3544 1824,3544 1789,3569 1789,3604 1789,3626 1805,3642 1830,3642 1862,3642 1890,3613 1890,3585 Z M 1667,4332 C 1645,4417 1592,4480 1529,4480 1523,4480 1507,4480 1488,4467 1519,4461 1538,4433 1538,4411 1538,4392 1526,4370 1494,4370 1466,4370 1435,4395 1435,4436 1435,4480 1479,4502 1532,4502 1611,4502 1714,4445 1742,4335 L 1843,3930 C 1849,3908 1849,3893 1849,3890 1849,3827 1802,3786 1745,3786 1632,3786 1570,3946 1570,3959 1570,3968 1582,3968 1582,3968 1595,3968 1595,3968 1604,3946 1632,3877 1683,3811 1742,3811 1758,3811 1780,3814 1780,3861 1780,3886 1777,3899 1771,3918 L 1667,4332 Z"/>
        </g>
       </g>
      </g>
      <g class="Group">
       <g class="com.sun.star.drawing.PolyPolygonShape">
        <g id="id25">
         <rect class="BoundingBox" stroke="none" fill="none" x="4651" y="1705" width="611" height="767"/>
        </g>
       </g>
       <g class="com.sun.star.drawing.ClosedBezierShape">
        <g id="id26">
         <rect class="BoundingBox" stroke="none" fill="none" x="4711" y="1702" width="504" height="783"/>
         <path fill="rgb(0,0,0)" stroke="none" d="M 4969,1715 C 4969,1715 4969,1702 4953,1702 4928,1702 4849,1711 4818,1715 4809,1715 4799,1715 4799,1737 4799,1749 4809,1749 4824,1749 4878,1749 4881,1755 4881,1768 L 4878,1790 4715,2427 C 4711,2443 4711,2446 4711,2452 4711,2477 4733,2484 4743,2484 4758,2484 4774,2474 4780,2458 4787,2449 4837,2245 4843,2217 4881,2220 4972,2239 4972,2311 4972,2320 4972,2323 4969,2333 4966,2349 4966,2361 4966,2374 4966,2440 5010,2484 5066,2484 5101,2484 5129,2465 5154,2424 5182,2377 5195,2314 5195,2311 5195,2302 5185,2302 5182,2302 5170,2302 5170,2305 5166,2320 5144,2402 5116,2458 5069,2458 5047,2458 5035,2446 5035,2405 5035,2386 5038,2361 5041,2345 5047,2327 5047,2320 5047,2311 5047,2239 4978,2207 4881,2195 4915,2173 4953,2138 4978,2113 5031,2054 5082,2006 5135,2006 5144,2006 5144,2006 5148,2006 5160,2010 5160,2010 5170,2016 5173,2016 5173,2019 5173,2019 5123,2022 5110,2066 5110,2079 5110,2098 5123,2119 5154,2119 5182,2119 5214,2094 5214,2050 5214,2019 5188,1981 5138,1981 5107,1981 5057,1991 4978,2079 4940,2119 4897,2163 4853,2182 L 4969,1715 Z"/>
        </g>
       </g>
      </g>
      <g class="Group">
       <g class="com.sun.star.drawing.PolyPolygonShape">
        <g id="id27">
         <rect class="BoundingBox" stroke="none" fill="none" x="-607" y="10579" width="354" height="768"/>
        </g>
       </g>
       <g class="com.sun.star.drawing.ClosedBezierShape">
        <g id="id28">
         <rect class="BoundingBox" stroke="none" fill="none" x="-559" y="10576" width="240" height="783"/>
         <path fill="rgb(0,0,0)" stroke="none" d="M -320,10589 C -320,10589 -320,10576 -333,10576 -361,10576 -443,10586 -471,10589 -481,10589 -493,10589 -493,10611 -493,10623 -481,10623 -465,10623 -411,10623 -408,10633 -408,10642 L -411,10664 -553,11216 C -556,11229 -559,11238 -559,11254 -559,11317 -509,11358 -459,11358 -421,11358 -393,11336 -374,11295 -352,11254 -339,11188 -339,11185 -339,11176 -349,11176 -352,11176 -364,11176 -364,11179 -368,11194 -390,11267 -408,11333 -455,11333 -487,11333 -487,11298 -487,11282 -487,11254 -487,11251 -481,11229 L -320,10589 Z"/>
        </g>
       </g>
      </g>
      <g class="Group">
       <g class="com.sun.star.drawing.PolyPolygonShape">
        <g id="id29">
         <rect class="BoundingBox" stroke="none" fill="none" x="4337" y="10871" width="665" height="479"/>
        </g>
       </g>
       <g class="com.sun.star.drawing.ClosedBezierShape">
        <g id="id30">
         <rect class="BoundingBox" stroke="none" fill="none" x="4369" y="10855" width="601" height="504"/>
         <path fill="rgb(0,0,0)" stroke="none" d="M 4435,11279 C 4432,11298 4426,11323 4426,11329 4426,11348 4441,11358 4457,11358 4470,11358 4492,11348 4498,11326 4498,11326 4514,11273 4520,11245 L 4542,11144 C 4551,11122 4558,11097 4561,11072 4567,11053 4576,11019 4576,11016 4592,10981 4652,10881 4758,10881 4809,10881 4818,10921 4818,10959 4818,11025 4762,11169 4746,11216 4736,11242 4733,11254 4733,11267 4733,11320 4774,11358 4824,11358 4928,11358 4969,11198 4969,11188 4969,11176 4959,11176 4956,11176 4947,11176 4947,11179 4940,11198 4919,11273 4881,11333 4827,11333 4809,11333 4799,11323 4799,11298 4799,11270 4812,11242 4821,11220 4843,11160 4887,11038 4887,10975 4887,10899 4840,10856 4762,10856 4661,10856 4608,10928 4589,10953 4583,10890 4536,10856 4485,10856 4435,10856 4413,10899 4404,10918 4385,10956 4369,11022 4369,11025 4369,11038 4382,11038 4382,11038 4394,11038 4394,11038 4401,11012 4419,10934 4441,10881 4482,10881 4504,10881 4517,10893 4517,10931 4517,10953 4514,10965 4498,11025 L 4435,11279 Z"/>
        </g>
       </g>
      </g>
      <g class="Group">
       <g class="com.sun.star.drawing.PolyPolygonShape">
        <g id="id31">
         <rect class="BoundingBox" stroke="none" fill="none" x="1450" y="7313" width="520" height="944"/>
        </g>
       </g>
       <g class="com.sun.star.drawing.ClosedBezierShape">
        <g id="id32">
         <rect class="BoundingBox" stroke="none" fill="none" x="1434" y="7310" width="457" height="959"/>
         <path fill="rgb(0,0,0)" stroke="none" d="M 1890,7351 C 1890,7329 1874,7311 1849,7311 1824,7311 1789,7336 1789,7370 1789,7392 1805,7408 1830,7408 1862,7408 1890,7380 1890,7351 Z M 1667,8098 C 1645,8183 1592,8246 1529,8246 1523,8246 1507,8246 1488,8233 1519,8227 1538,8199 1538,8177 1538,8158 1526,8136 1494,8136 1466,8136 1435,8161 1435,8202 1435,8246 1479,8268 1532,8268 1611,8268 1714,8211 1742,8101 L 1843,7697 C 1849,7675 1849,7659 1849,7656 1849,7593 1802,7552 1745,7552 1632,7552 1570,7712 1570,7725 1570,7734 1582,7734 1582,7734 1595,7734 1595,7734 1604,7712 1632,7643 1683,7577 1742,7577 1758,7577 1780,7580 1780,7628 1780,7653 1777,7665 1771,7684 L 1667,8098 Z"/>
        </g>
       </g>
      </g>
      <g class="com.sun.star.drawing.LineShape">
       <g id="id33">
        <rect class="BoundingBox" stroke="none" fill="none" x="22017" y="10322" width="2022" height="129"/>
        <path fill="none" stroke="rgb(0,0,0)" stroke-width="127" stroke-linejoin="round" d="M 22081,10386 L 23974,10386"/>
       </g>
      </g>
      <g class="com.sun.star.drawing.LineShape">
       <g id="id34">
        <rect class="BoundingBox" stroke="none" fill="none" x="14436" y="1535" width="2022" height="129"/>
        <path fill="none" stroke="rgb(0,0,0)" stroke-width="127" stroke-linejoin="round" d="M 14500,1599 L 16393,1599"/>
       </g>
      </g>
      <g class="com.sun.star.drawing.RectangleShape">
       <g id="id35">
        <rect class="BoundingBox" stroke="none" fill="none" x="16351" y="8937" width="3318" height="2765"/>
        <path fill="rgb(255,211,32)" stroke="none" d="M 18010,9001 L 19604,9001 19604,11637 16415,11637 16415,9001 18010,9001 Z"/>
        <path fill="none" stroke="rgb(0,0,0)" stroke-width="127" stroke-linejoin="round" d="M 18010,9001 L 19604,9001 19604,11637 16415,11637 16415,9001 18010,9001 Z"/>
       </g>
      </g>
      <g class="com.sun.star.drawing.LineShape">
       <g id="id36">
        <rect class="BoundingBox" stroke="none" fill="none" x="19557" y="10322" width="2023" height="129"/>
        <path fill="none" stroke="rgb(0,0,0)" stroke-width="127" stroke-linejoin="round" d="M 21515,10386 L 19621,10386"/>
       </g>
      </g>
      <g class="com.sun.star.drawing.LineShape">
       <g id="id37">
        <rect class="BoundingBox" stroke="none" fill="none" x="14456" y="10322" width="2023" height="129"/>
        <path fill="none" stroke="rgb(0,0,0)" stroke-width="127" stroke-linejoin="round" d="M 16414,10386 L 14520,10386"/>
       </g>
      </g>
      <g class="com.sun.star.drawing.LineShape">
       <g id="id38">
        <rect class="BoundingBox" stroke="none" fill="none" x="17993" y="7075" width="129" height="2023"/>
        <path fill="none" stroke="rgb(0,0,0)" stroke-width="127" stroke-linejoin="round" d="M 18057,7139 L 18057,9033"/>
       </g>
      </g>
      <g class="Group">
       <g class="com.sun.star.drawing.PolyPolygonShape">
        <g id="id39">
         <rect class="BoundingBox" stroke="none" fill="none" x="17460" y="9943" width="893" height="755"/>
        </g>
       </g>
       <g class="com.sun.star.drawing.ClosedBezierShape">
        <g id="id40">
         <rect class="BoundingBox" stroke="none" fill="none" x="17507" y="9940" width="793" height="758"/>
         <path fill="rgb(0,0,0)" stroke="none" d="M 17639,10612 C 17627,10653 17624,10662 17539,10662 17520,10662 17507,10662 17507,10684 17507,10697 17517,10697 17539,10697 L 17931,10697 C 18107,10697 18239,10565 18239,10458 18239,10377 18173,10314 18066,10301 18182,10280 18298,10198 18298,10094 18298,10013 18226,9941 18091,9941 L 17721,9941 C 17699,9941 17689,9941 17689,9963 17689,9975 17699,9975 17718,9975 17721,9975 17743,9975 17762,9978 17780,9978 17790,9981 17790,9994 17790,10000 17790,10003 17787,10016 L 17639,10612 Z M 17806,10292 L 17875,10016 C 17884,9978 17887,9975 17934,9975 L 18076,9975 C 18173,9975 18198,10041 18198,10088 18198,10185 18101,10292 17966,10292 L 17806,10292 Z M 17755,10662 C 17740,10662 17737,10662 17730,10662 17721,10659 17718,10659 17718,10650 17718,10647 17718,10644 17721,10625 L 17799,10317 18006,10317 C 18113,10317 18135,10399 18135,10446 18135,10556 18038,10662 17906,10662 L 17755,10662 Z"/>
        </g>
       </g>
      </g>
      <g class="Group">
       <g class="com.sun.star.drawing.PolyPolygonShape">
        <g id="id41">
         <rect class="BoundingBox" stroke="none" fill="none" x="17241" y="3674" width="520" height="944"/>
        </g>
       </g>
       <g class="com.sun.star.drawing.ClosedBezierShape">
        <g id="id42">
         <rect class="BoundingBox" stroke="none" fill="none" x="17225" y="3671" width="457" height="959"/>
         <path fill="rgb(0,0,0)" stroke="none" d="M 17681,3712 C 17681,3690 17665,3671 17640,3671 17615,3671 17580,3696 17580,3731 17580,3753 17596,3769 17621,3769 17653,3769 17681,3740 17681,3712 Z M 17458,4459 C 17436,4544 17383,4607 17320,4607 17314,4607 17298,4607 17279,4594 17310,4588 17329,4560 17329,4538 17329,4519 17317,4497 17285,4497 17257,4497 17226,4522 17226,4563 17226,4607 17270,4629 17323,4629 17402,4629 17505,4572 17533,4462 L 17634,4057 C 17640,4035 17640,4020 17640,4017 17640,3954 17593,3913 17536,3913 17423,3913 17361,4073 17361,4086 17361,4095 17373,4095 17373,4095 17386,4095 17386,4095 17395,4073 17423,4004 17474,3938 17533,3938 17549,3938 17571,3941 17571,3988 17571,4013 17568,4026 17562,4045 L 17458,4459 Z"/>
        </g>
       </g>
      </g>
      <g class="Group">
       <g class="com.sun.star.drawing.PolyPolygonShape">
        <g id="id43">
         <rect class="BoundingBox" stroke="none" fill="none" x="15184" y="10706" width="354" height="768"/>
        </g>
       </g>
       <g class="com.sun.star.drawing.ClosedBezierShape">
        <g id="id44">
         <rect class="BoundingBox" stroke="none" fill="none" x="15232" y="10703" width="240" height="783"/>
         <path fill="rgb(0,0,0)" stroke="none" d="M 15471,10716 C 15471,10716 15471,10703 15458,10703 15430,10703 15348,10713 15320,10716 15310,10716 15298,10716 15298,10738 15298,10750 15310,10750 15326,10750 15380,10750 15383,10760 15383,10769 L 15380,10791 15238,11343 C 15235,11356 15232,11365 15232,11381 15232,11444 15282,11485 15332,11485 15370,11485 15398,11463 15417,11422 15439,11381 15452,11315 15452,11312 15452,11303 15442,11303 15439,11303 15427,11303 15427,11306 15423,11321 15401,11394 15383,11460 15336,11460 15304,11460 15304,11425 15304,11409 15304,11381 15304,11378 15310,11356 L 15471,10716 Z"/>
        </g>
       </g>
      </g>
      <g class="Group">
       <g class="com.sun.star.drawing.PolyPolygonShape">
        <g id="id45">
         <rect class="BoundingBox" stroke="none" fill="none" x="20128" y="10998" width="665" height="479"/>
        </g>
       </g>
       <g class="com.sun.star.drawing.ClosedBezierShape">
        <g id="id46">
         <rect class="BoundingBox" stroke="none" fill="none" x="20160" y="10982" width="601" height="504"/>
         <path fill="rgb(0,0,0)" stroke="none" d="M 20226,11406 C 20223,11425 20217,11450 20217,11456 20217,11475 20232,11485 20248,11485 20261,11485 20283,11475 20289,11453 20289,11453 20305,11400 20311,11372 L 20333,11271 C 20342,11249 20349,11224 20352,11199 20358,11180 20367,11146 20367,11143 20383,11108 20443,11008 20549,11008 20600,11008 20609,11048 20609,11086 20609,11152 20553,11296 20537,11343 20527,11369 20524,11381 20524,11394 20524,11447 20565,11485 20615,11485 20719,11485 20760,11325 20760,11315 20760,11303 20750,11303 20747,11303 20738,11303 20738,11306 20731,11325 20710,11400 20672,11460 20618,11460 20600,11460 20590,11450 20590,11425 20590,11397 20603,11369 20612,11347 20634,11287 20678,11165 20678,11102 20678,11026 20631,10983 20553,10983 20452,10983 20399,11055 20380,11080 20374,11017 20327,10983 20276,10983 20226,10983 20204,11026 20195,11045 20176,11083 20160,11149 20160,11152 20160,11165 20173,11165 20173,11165 20185,11165 20185,11165 20192,11139 20210,11061 20232,11008 20273,11008 20295,11008 20308,11020 20308,11058 20308,11080 20305,11092 20289,11152 L 20226,11406 Z"/>
        </g>
       </g>
      </g>
      <g class="Group">
       <g class="com.sun.star.drawing.PolyPolygonShape">
        <g id="id47">
         <rect class="BoundingBox" stroke="none" fill="none" x="17241" y="7440" width="520" height="944"/>
        </g>
       </g>
       <g class="com.sun.star.drawing.ClosedBezierShape">
        <g id="id48">
         <rect class="BoundingBox" stroke="none" fill="none" x="17225" y="7437" width="457" height="959"/>
         <path fill="rgb(0,0,0)" stroke="none" d="M 17681,7478 C 17681,7456 17665,7438 17640,7438 17615,7438 17580,7463 17580,7497 17580,7519 17596,7535 17621,7535 17653,7535 17681,7507 17681,7478 Z M 17458,8225 C 17436,8310 17383,8373 17320,8373 17314,8373 17298,8373 17279,8360 17310,8354 17329,8326 17329,8304 17329,8285 17317,8263 17285,8263 17257,8263 17226,8288 17226,8329 17226,8373 17270,8395 17323,8395 17402,8395 17505,8338 17533,8228 L 17634,7824 C 17640,7802 17640,7786 17640,7783 17640,7720 17593,7679 17536,7679 17423,7679 17361,7839 17361,7852 17361,7861 17373,7861 17373,7861 17386,7861 17386,7861 17395,7839 17423,7770 17474,7704 17533,7704 17549,7704 17571,7707 17571,7755 17571,7780 17568,7792 17562,7811 L 17458,8225 Z"/>
        </g>
       </g>
      </g>
      <g class="com.sun.star.drawing.LineShape">
       <g id="id49">
        <rect class="BoundingBox" stroke="none" fill="none" x="17993" y="3153" width="129" height="2022"/>
        <path fill="none" stroke="rgb(0,0,0)" stroke-width="127" stroke-linejoin="round" d="M 18057,5110 L 18057,3217"/>
       </g>
      </g>
      <g class="com.sun.star.drawing.LineShape">
       <g id="id50">
        <rect class="BoundingBox" stroke="none" fill="none" x="22017" y="10322" width="2022" height="129"/>
        <path fill="none" stroke="rgb(0,0,0)" stroke-width="127" stroke-linejoin="round" d="M 22081,10386 L 23974,10386"/>
       </g>
      </g>
      <g class="com.sun.star.drawing.ClosedBezierShape">
       <g id="id51">
        <rect class="BoundingBox" stroke="none" fill="none" x="16291" y="434" width="11166" height="11269"/>
        <path fill="rgb(255,249,174)" stroke="none" d="M 27359,11628 C 27369,11622 27376,11615 27382,11605 27388,11595 27391,11585 27391,11573 L 27391,3199 27391,612 27391,563 C 27391,551 27388,541 27382,531 27376,521 27369,514 27359,508 27349,502 27339,500 27327,500 L 16420,500 C 16408,500 16398,502 16388,508 16378,514 16371,521 16365,531 16359,541 16357,551 16357,563 L 16357,3199 C 16357,3211 16359,3221 16365,3231 16371,3241 16378,3248 16388,3254 16398,3260 16408,3262 16420,3262 L 24075,3262 24075,11573 C 24075,11585 24077,11595 24083,11605 24089,11615 24096,11622 24106,11628 24116,11634 24126,11637 24138,11637 L 27327,11637 C 27339,11637 27349,11634 27359,11628 Z"/>
        <path fill="none" stroke="rgb(0,0,0)" stroke-width="130" stroke-linejoin="round" d="M 27359,11628 C 27369,11622 27376,11615 27382,11605 27388,11595 27391,11585 27391,11573 L 27391,3199 27391,612 27391,563 C 27391,551 27388,541 27382,531 27376,521 27369,514 27359,508 27349,502 27339,500 27327,500 L 16420,500 C 16408,500 16398,502 16388,508 16378,514 16371,521 16365,531 16359,541 16357,551 16357,563 L 16357,3199 C 16357,3211 16359,3221 16365,3231 16371,3241 16378,3248 16388,3254 16398,3260 16408,3262 16420,3262 L 24075,3262 24075,11573 C 24075,11585 24077,11595 24083,11605 24089,11615 24096,11622 24106,11628 24116,11634 24126,11637 24138,11637 L 27327,11637 C 27339,11637 27349,11634 27359,11628 Z"/>
       </g>
      </g>
      <g class="com.sun.star.drawing.LineShape">
       <g id="id52">
        <rect class="BoundingBox" stroke="none" fill="none" x="14436" y="1535" width="2022" height="129"/>
        <path fill="none" stroke="rgb(0,0,0)" stroke-width="127" stroke-linejoin="round" d="M 14500,1599 L 16393,1599"/>
       </g>
      </g>
      <g class="com.sun.star.drawing.RectangleShape">
       <g id="id53">
        <rect class="BoundingBox" stroke="none" fill="none" x="16351" y="8937" width="3318" height="2765"/>
        <path fill="rgb(255,249,174)" stroke="none" d="M 18010,9001 L 19604,9001 19604,11637 16415,11637 16415,9001 18010,9001 Z"/>
        <path fill="none" stroke="rgb(0,0,0)" stroke-width="127" stroke-linejoin="round" d="M 18010,9001 L 19604,9001 19604,11637 16415,11637 16415,9001 18010,9001 Z"/>
       </g>
      </g>
      <g class="com.sun.star.drawing.LineShape">
       <g id="id54">
        <rect class="BoundingBox" stroke="none" fill="none" x="19557" y="10322" width="2023" height="129"/>
        <path fill="none" stroke="rgb(0,0,0)" stroke-width="127" stroke-linejoin="round" d="M 21515,10386 L 19621,10386"/>
       </g>
      </g>
      <g class="com.sun.star.drawing.LineShape">
       <g id="id55">
        <rect class="BoundingBox" stroke="none" fill="none" x="14456" y="10322" width="2023" height="129"/>
        <path fill="none" stroke="rgb(0,0,0)" stroke-width="127" stroke-linejoin="round" d="M 16414,10386 L 14520,10386"/>
       </g>
      </g>
      <g class="com.sun.star.drawing.LineShape">
       <g id="id56">
        <rect class="BoundingBox" stroke="none" fill="none" x="17993" y="7075" width="129" height="2023"/>
        <path fill="none" stroke="rgb(0,0,0)" stroke-width="127" stroke-linejoin="round" d="M 18057,7139 L 18057,9033"/>
       </g>
      </g>
      <g class="Group">
       <g class="com.sun.star.drawing.PolyPolygonShape">
        <g id="id57">
         <rect class="BoundingBox" stroke="none" fill="none" x="17460" y="9943" width="893" height="755"/>
        </g>
       </g>
       <g class="com.sun.star.drawing.ClosedBezierShape">
        <g id="id58">
         <rect class="BoundingBox" stroke="none" fill="none" x="17507" y="9940" width="793" height="758"/>
         <path fill="rgb(0,0,0)" stroke="none" d="M 17639,10612 C 17627,10653 17624,10662 17539,10662 17520,10662 17507,10662 17507,10684 17507,10697 17517,10697 17539,10697 L 17931,10697 C 18107,10697 18239,10565 18239,10458 18239,10377 18173,10314 18066,10301 18182,10280 18298,10198 18298,10094 18298,10013 18226,9941 18091,9941 L 17721,9941 C 17699,9941 17689,9941 17689,9963 17689,9975 17699,9975 17718,9975 17721,9975 17743,9975 17762,9978 17780,9978 17790,9981 17790,9994 17790,10000 17790,10003 17787,10016 L 17639,10612 Z M 17806,10292 L 17875,10016 C 17884,9978 17887,9975 17934,9975 L 18076,9975 C 18173,9975 18198,10041 18198,10088 18198,10185 18101,10292 17966,10292 L 17806,10292 Z M 17755,10662 C 17740,10662 17737,10662 17730,10662 17721,10659 17718,10659 17718,10650 17718,10647 17718,10644 17721,10625 L 17799,10317 18006,10317 C 18113,10317 18135,10399 18135,10446 18135,10556 18038,10662 17906,10662 L 17755,10662 Z"/>
        </g>
       </g>
      </g>
      <g class="Group">
       <g class="com.sun.star.drawing.PolyPolygonShape">
        <g id="id59">
         <rect class="BoundingBox" stroke="none" fill="none" x="17241" y="3674" width="520" height="944"/>
        </g>
       </g>
       <g class="com.sun.star.drawing.ClosedBezierShape">
        <g id="id60">
         <rect class="BoundingBox" stroke="none" fill="none" x="17225" y="3671" width="457" height="959"/>
         <path fill="rgb(0,0,0)" stroke="none" d="M 17681,3712 C 17681,3690 17665,3671 17640,3671 17615,3671 17580,3696 17580,3731 17580,3753 17596,3769 17621,3769 17653,3769 17681,3740 17681,3712 Z M 17458,4459 C 17436,4544 17383,4607 17320,4607 17314,4607 17298,4607 17279,4594 17310,4588 17329,4560 17329,4538 17329,4519 17317,4497 17285,4497 17257,4497 17226,4522 17226,4563 17226,4607 17270,4629 17323,4629 17402,4629 17505,4572 17533,4462 L 17634,4057 C 17640,4035 17640,4020 17640,4017 17640,3954 17593,3913 17536,3913 17423,3913 17361,4073 17361,4086 17361,4095 17373,4095 17373,4095 17386,4095 17386,4095 17395,4073 17423,4004 17474,3938 17533,3938 17549,3938 17571,3941 17571,3988 17571,4013 17568,4026 17562,4045 L 17458,4459 Z"/>
        </g>
       </g>
      </g>
      <g class="Group">
       <g class="com.sun.star.drawing.PolyPolygonShape">
        <g id="id61">
         <rect class="BoundingBox" stroke="none" fill="none" x="15184" y="10706" width="354" height="768"/>
        </g>
       </g>
       <g class="com.sun.star.drawing.ClosedBezierShape">
        <g id="id62">
         <rect class="BoundingBox" stroke="none" fill="none" x="15232" y="10703" width="240" height="783"/>
         <path fill="rgb(0,0,0)" stroke="none" d="M 15471,10716 C 15471,10716 15471,10703 15458,10703 15430,10703 15348,10713 15320,10716 15310,10716 15298,10716 15298,10738 15298,10750 15310,10750 15326,10750 15380,10750 15383,10760 15383,10769 L 15380,10791 15238,11343 C 15235,11356 15232,11365 15232,11381 15232,11444 15282,11485 15332,11485 15370,11485 15398,11463 15417,11422 15439,11381 15452,11315 15452,11312 15452,11303 15442,11303 15439,11303 15427,11303 15427,11306 15423,11321 15401,11394 15383,11460 15336,11460 15304,11460 15304,11425 15304,11409 15304,11381 15304,11378 15310,11356 L 15471,10716 Z"/>
        </g>
       </g>
      </g>
      <g class="Group">
       <g class="com.sun.star.drawing.PolyPolygonShape">
        <g id="id63">
         <rect class="BoundingBox" stroke="none" fill="none" x="20128" y="10998" width="665" height="479"/>
        </g>
       </g>
       <g class="com.sun.star.drawing.ClosedBezierShape">
        <g id="id64">
         <rect class="BoundingBox" stroke="none" fill="none" x="20160" y="10982" width="601" height="504"/>
         <path fill="rgb(0,0,0)" stroke="none" d="M 20226,11406 C 20223,11425 20217,11450 20217,11456 20217,11475 20232,11485 20248,11485 20261,11485 20283,11475 20289,11453 20289,11453 20305,11400 20311,11372 L 20333,11271 C 20342,11249 20349,11224 20352,11199 20358,11180 20367,11146 20367,11143 20383,11108 20443,11008 20549,11008 20600,11008 20609,11048 20609,11086 20609,11152 20553,11296 20537,11343 20527,11369 20524,11381 20524,11394 20524,11447 20565,11485 20615,11485 20719,11485 20760,11325 20760,11315 20760,11303 20750,11303 20747,11303 20738,11303 20738,11306 20731,11325 20710,11400 20672,11460 20618,11460 20600,11460 20590,11450 20590,11425 20590,11397 20603,11369 20612,11347 20634,11287 20678,11165 20678,11102 20678,11026 20631,10983 20553,10983 20452,10983 20399,11055 20380,11080 20374,11017 20327,10983 20276,10983 20226,10983 20204,11026 20195,11045 20176,11083 20160,11149 20160,11152 20160,11165 20173,11165 20173,11165 20185,11165 20185,11165 20192,11139 20210,11061 20232,11008 20273,11008 20295,11008 20308,11020 20308,11058 20308,11080 20305,11092 20289,11152 L 20226,11406 Z"/>
        </g>
       </g>
      </g>
      <g class="Group">
       <g class="com.sun.star.drawing.PolyPolygonShape">
        <g id="id65">
         <rect class="BoundingBox" stroke="none" fill="none" x="17241" y="7440" width="520" height="944"/>
        </g>
       </g>
       <g class="com.sun.star.drawing.ClosedBezierShape">
        <g id="id66">
         <rect class="BoundingBox" stroke="none" fill="none" x="17225" y="7437" width="457" height="959"/>
         <path fill="rgb(0,0,0)" stroke="none" d="M 17681,7478 C 17681,7456 17665,7438 17640,7438 17615,7438 17580,7463 17580,7497 17580,7519 17596,7535 17621,7535 17653,7535 17681,7507 17681,7478 Z M 17458,8225 C 17436,8310 17383,8373 17320,8373 17314,8373 17298,8373 17279,8360 17310,8354 17329,8326 17329,8304 17329,8285 17317,8263 17285,8263 17257,8263 17226,8288 17226,8329 17226,8373 17270,8395 17323,8395 17402,8395 17505,8338 17533,8228 L 17634,7824 C 17640,7802 17640,7786 17640,7783 17640,7720 17593,7679 17536,7679 17423,7679 17361,7839 17361,7852 17361,7861 17373,7861 17373,7861 17386,7861 17386,7861 17395,7839 17423,7770 17474,7704 17533,7704 17549,7704 17571,7707 17571,7755 17571,7780 17568,7792 17562,7811 L 17458,8225 Z"/>
        </g>
       </g>
      </g>
      <g class="com.sun.star.drawing.CustomShape">
       <g id="id67">
        <rect class="BoundingBox" stroke="none" fill="none" x="12499" y="4999" width="2004" height="2504"/>
        <path fill="rgb(153,204,255)" stroke="none" d="M 12500,5625 L 14000,5625 14000,5000 14501,6250 14000,7501 14000,6875 12500,6875 12500,5625 Z M 12500,5000 L 12500,5000 Z M 14501,7501 L 14501,7501 Z"/>
        <path fill="none" stroke="rgb(0,0,0)" d="M 12500,5625 L 14000,5625 14000,5000 14501,6250 14000,7501 14000,6875 12500,6875 12500,5625 Z"/>
        <path fill="none" stroke="rgb(0,0,0)" d="M 12500,5000 L 12500,5000 Z"/>
        <path fill="none" stroke="rgb(0,0,0)" d="M 14501,7501 L 14501,7501 Z"/>
       </g>
      </g>
      <g class="com.sun.star.drawing.CustomShape">
       <g id="id68">
        <rect class="BoundingBox" stroke="none" fill="none" x="28299" y="4999" width="2004" height="2504"/>
        <path fill="rgb(153,204,255)" stroke="none" d="M 28300,5625 L 29800,5625 29800,5000 30301,6250 29800,7501 29800,6875 28300,6875 28300,5625 Z M 28300,5000 L 28300,5000 Z M 30301,7501 L 30301,7501 Z"/>
        <path fill="none" stroke="rgb(0,0,0)" d="M 28300,5625 L 29800,5625 29800,5000 30301,6250 29800,7501 29800,6875 28300,6875 28300,5625 Z"/>
        <path fill="none" stroke="rgb(0,0,0)" d="M 28300,5000 L 28300,5000 Z"/>
        <path fill="none" stroke="rgb(0,0,0)" d="M 30301,7501 L 30301,7501 Z"/>
       </g>
      </g>
      <g class="Group">
       <g class="com.sun.star.drawing.PolyPolygonShape">
        <g id="id69">
         <rect class="BoundingBox" stroke="none" fill="none" x="7151" y="1705" width="611" height="767"/>
        </g>
       </g>
       <g class="com.sun.star.drawing.ClosedBezierShape">
        <g id="id70">
         <rect class="BoundingBox" stroke="none" fill="none" x="7211" y="1702" width="504" height="783"/>
         <path fill="rgb(0,0,0)" stroke="none" d="M 7469,1715 C 7469,1715 7469,1702 7453,1702 7428,1702 7349,1711 7318,1715 7309,1715 7299,1715 7299,1737 7299,1749 7309,1749 7324,1749 7378,1749 7381,1755 7381,1768 L 7378,1790 7215,2427 C 7211,2443 7211,2446 7211,2452 7211,2477 7233,2484 7243,2484 7258,2484 7274,2474 7280,2458 7287,2449 7337,2245 7343,2217 7381,2220 7472,2239 7472,2311 7472,2320 7472,2323 7469,2333 7466,2349 7466,2361 7466,2374 7466,2440 7510,2484 7566,2484 7601,2484 7629,2465 7654,2424 7682,2377 7695,2314 7695,2311 7695,2302 7685,2302 7682,2302 7670,2302 7670,2305 7666,2320 7644,2402 7616,2458 7569,2458 7547,2458 7535,2446 7535,2405 7535,2386 7538,2361 7541,2345 7547,2327 7547,2320 7547,2311 7547,2239 7478,2207 7381,2195 7415,2173 7453,2138 7478,2113 7531,2054 7582,2006 7635,2006 7644,2006 7644,2006 7648,2006 7660,2010 7660,2010 7670,2016 7673,2016 7673,2019 7673,2019 7623,2022 7610,2066 7610,2079 7610,2098 7623,2119 7654,2119 7682,2119 7714,2094 7714,2050 7714,2019 7688,1981 7638,1981 7607,1981 7557,1991 7478,2079 7440,2119 7397,2163 7353,2182 L 7469,1715 Z"/>
        </g>
       </g>
      </g>
      <g class="Group">
       <g class="com.sun.star.drawing.PolyPolygonShape">
        <g id="id71">
         <rect class="BoundingBox" stroke="none" fill="none" x="6837" y="10871" width="665" height="479"/>
        </g>
       </g>
       <g class="com.sun.star.drawing.ClosedBezierShape">
        <g id="id72">
         <rect class="BoundingBox" stroke="none" fill="none" x="6869" y="10855" width="601" height="504"/>
         <path fill="rgb(0,0,0)" stroke="none" d="M 6935,11279 C 6932,11298 6926,11323 6926,11329 6926,11348 6941,11358 6957,11358 6970,11358 6992,11348 6998,11326 6998,11326 7014,11273 7020,11245 L 7042,11144 C 7051,11122 7058,11097 7061,11072 7067,11053 7076,11019 7076,11016 7092,10981 7152,10881 7258,10881 7309,10881 7318,10921 7318,10959 7318,11025 7262,11169 7246,11216 7236,11242 7233,11254 7233,11267 7233,11320 7274,11358 7324,11358 7428,11358 7469,11198 7469,11188 7469,11176 7459,11176 7456,11176 7447,11176 7447,11179 7440,11198 7419,11273 7381,11333 7327,11333 7309,11333 7299,11323 7299,11298 7299,11270 7312,11242 7321,11220 7343,11160 7387,11038 7387,10975 7387,10899 7340,10856 7262,10856 7161,10856 7108,10928 7089,10953 7083,10890 7036,10856 6985,10856 6935,10856 6913,10899 6904,10918 6885,10956 6869,11022 6869,11025 6869,11038 6882,11038 6882,11038 6894,11038 6894,11038 6901,11012 6919,10934 6941,10881 6982,10881 7004,10881 7017,10893 7017,10931 7017,10953 7014,10965 6998,11025 L 6935,11279 Z"/>
        </g>
       </g>
      </g>
      <g class="Group">
       <g class="com.sun.star.drawing.PolyPolygonShape">
        <g id="id73">
         <rect class="BoundingBox" stroke="none" fill="none" x="15208" y="1895" width="385" height="730"/>
        </g>
       </g>
       <g class="com.sun.star.drawing.ClosedBezierShape">
        <g id="id74">
         <rect class="BoundingBox" stroke="none" fill="none" x="15239" y="1892" width="297" height="746"/>
         <path fill="rgb(0,0,0)" stroke="none" d="M 15526,1934 C 15526,1912 15510,1893 15482,1893 15453,1893 15422,1921 15422,1952 15422,1971 15438,1990 15466,1990 15491,1990 15526,1965 15526,1934 Z M 15441,2348 C 15453,2316 15453,2313 15463,2285 15472,2263 15478,2247 15478,2225 15478,2175 15444,2134 15387,2134 15281,2134 15240,2294 15240,2307 15240,2316 15252,2316 15252,2316 15265,2316 15265,2313 15271,2298 15303,2194 15347,2159 15384,2159 15394,2159 15413,2159 15413,2194 15413,2219 15403,2241 15400,2254 15391,2282 15340,2411 15322,2458 15312,2486 15296,2524 15296,2546 15296,2599 15334,2637 15387,2637 15494,2637 15535,2476 15535,2467 15535,2455 15526,2455 15522,2455 15510,2455 15510,2458 15504,2476 15485,2546 15447,2611 15391,2611 15372,2611 15362,2602 15362,2577 15362,2549 15372,2533 15397,2464 L 15441,2348 Z"/>
        </g>
       </g>
      </g>
      <g class="Group">
       <g class="com.sun.star.drawing.PolyPolygonShape">
        <g id="id75">
         <rect class="BoundingBox" stroke="none" fill="none" x="22628" y="10998" width="665" height="479"/>
        </g>
       </g>
       <g class="com.sun.star.drawing.ClosedBezierShape">
        <g id="id76">
         <rect class="BoundingBox" stroke="none" fill="none" x="22660" y="10982" width="601" height="504"/>
         <path fill="rgb(0,0,0)" stroke="none" d="M 22726,11406 C 22723,11425 22717,11450 22717,11456 22717,11475 22732,11485 22748,11485 22761,11485 22783,11475 22789,11453 22789,11453 22805,11400 22811,11372 L 22833,11271 C 22842,11249 22849,11224 22852,11199 22858,11180 22867,11146 22867,11143 22883,11108 22943,11008 23049,11008 23100,11008 23109,11048 23109,11086 23109,11152 23053,11296 23037,11343 23027,11369 23024,11381 23024,11394 23024,11447 23065,11485 23115,11485 23219,11485 23260,11325 23260,11315 23260,11303 23250,11303 23247,11303 23238,11303 23238,11306 23231,11325 23210,11400 23172,11460 23118,11460 23100,11460 23090,11450 23090,11425 23090,11397 23103,11369 23112,11347 23134,11287 23178,11165 23178,11102 23178,11026 23131,10983 23053,10983 22952,10983 22899,11055 22880,11080 22874,11017 22827,10983 22776,10983 22726,10983 22704,11026 22695,11045 22676,11083 22660,11149 22660,11152 22660,11165 22673,11165 22673,11165 22685,11165 22685,11165 22692,11139 22710,11061 22732,11008 22773,11008 22795,11008 22808,11020 22808,11058 22808,11080 22805,11092 22789,11152 L 22726,11406 Z"/>
        </g>
       </g>
      </g>
      <g class="com.sun.star.drawing.LineShape">
       <g id="id77">
        <rect class="BoundingBox" stroke="none" fill="none" x="30615" y="1550" width="2022" height="129"/>
        <path fill="none" stroke="rgb(0,0,0)" stroke-width="127" stroke-linejoin="round" d="M 30679,1614 L 32572,1614"/>
       </g>
      </g>
      <g class="com.sun.star.drawing.LineShape">
       <g id="id78">
        <rect class="BoundingBox" stroke="none" fill="none" x="30536" y="10337" width="2023" height="129"/>
        <path fill="none" stroke="rgb(0,0,0)" stroke-width="127" stroke-linejoin="round" d="M 32494,10401 L 30600,10401"/>
       </g>
      </g>
      <g class="Group">
       <g class="com.sun.star.drawing.PolyPolygonShape">
        <g id="id79">
         <rect class="BoundingBox" stroke="none" fill="none" x="31029" y="1884" width="385" height="730"/>
        </g>
       </g>
       <g class="com.sun.star.drawing.ClosedBezierShape">
        <g id="id80">
         <rect class="BoundingBox" stroke="none" fill="none" x="31060" y="1881" width="297" height="746"/>
         <path fill="rgb(0,0,0)" stroke="none" d="M 31347,1923 C 31347,1901 31331,1882 31303,1882 31274,1882 31243,1910 31243,1941 31243,1960 31259,1979 31287,1979 31312,1979 31347,1954 31347,1923 Z M 31262,2337 C 31274,2305 31274,2302 31284,2274 31293,2252 31299,2236 31299,2214 31299,2164 31265,2123 31208,2123 31102,2123 31061,2283 31061,2296 31061,2305 31073,2305 31073,2305 31086,2305 31086,2302 31092,2287 31124,2183 31168,2148 31205,2148 31215,2148 31234,2148 31234,2183 31234,2208 31224,2230 31221,2243 31212,2271 31161,2400 31143,2447 31133,2475 31117,2513 31117,2535 31117,2588 31155,2626 31208,2626 31315,2626 31356,2465 31356,2456 31356,2444 31347,2444 31343,2444 31331,2444 31331,2447 31325,2465 31306,2535 31268,2600 31212,2600 31193,2600 31183,2591 31183,2566 31183,2538 31193,2522 31218,2453 L 31262,2337 Z"/>
        </g>
       </g>
      </g>
      <g class="Group">
       <g class="com.sun.star.drawing.PolyPolygonShape">
        <g id="id81">
         <rect class="BoundingBox" stroke="none" fill="none" x="31264" y="10721" width="354" height="768"/>
        </g>
       </g>
       <g class="com.sun.star.drawing.ClosedBezierShape">
        <g id="id82">
         <rect class="BoundingBox" stroke="none" fill="none" x="31312" y="10718" width="240" height="783"/>
         <path fill="rgb(0,0,0)" stroke="none" d="M 31551,10731 C 31551,10731 31551,10718 31538,10718 31510,10718 31428,10728 31400,10731 31390,10731 31378,10731 31378,10753 31378,10765 31390,10765 31406,10765 31460,10765 31463,10775 31463,10784 L 31460,10806 31318,11358 C 31315,11371 31312,11380 31312,11396 31312,11459 31362,11500 31412,11500 31450,11500 31478,11478 31497,11437 31519,11396 31532,11330 31532,11327 31532,11318 31522,11318 31519,11318 31507,11318 31507,11321 31503,11336 31481,11409 31463,11475 31416,11475 31384,11475 31384,11440 31384,11424 31384,11396 31384,11393 31390,11371 L 31551,10731 Z"/>
        </g>
       </g>
      </g>
      <g class="com.sun.star.drawing.RectangleShape">
       <g id="id83">
        <rect class="BoundingBox" stroke="none" fill="none" x="32347" y="475" width="3318" height="11090"/>
        <path fill="rgb(255,249,174)" stroke="none" d="M 34006,11500 L 32411,11500 32411,539 35600,539 35600,11500 34006,11500 Z"/>
        <path fill="none" stroke="rgb(0,0,0)" stroke-width="127" stroke-linejoin="round" d="M 34006,11500 L 32411,11500 32411,539 35600,539 35600,11500 34006,11500 Z"/>
       </g>
      </g>
      <g class="Group">
       <g class="com.sun.star.drawing.PolyPolygonShape">
        <g id="id84">
         <rect class="BoundingBox" stroke="none" fill="none" x="33755" y="5167" width="573" height="693"/>
        </g>
       </g>
       <g class="com.sun.star.drawing.ClosedBezierShape">
        <g id="id85">
         <rect class="BoundingBox" stroke="none" fill="none" x="33789" y="5152" width="526" height="730"/>
         <path fill="rgb(0,0,0)" stroke="none" d="M 33793,5833 C 33790,5846 33790,5849 33790,5852 33790,5868 33802,5880 33821,5880 33843,5880 33859,5862 33859,5858 33865,5849 33899,5698 33931,5579 33953,5623 33987,5654 34041,5654 34169,5654 34314,5497 34314,5334 34314,5215 34242,5152 34160,5152 34050,5152 33934,5262 33903,5397 L 33793,5833 Z M 34041,5629 C 33962,5629 33943,5541 33943,5532 33943,5526 33950,5504 33953,5491 33984,5366 33994,5325 34019,5281 34066,5202 34122,5177 34157,5177 34198,5177 34232,5209 34232,5284 34232,5347 34201,5469 34172,5526 34135,5595 34081,5629 34041,5629 Z"/>
        </g>
       </g>
      </g>
     </g>
    </g>
   </g>
  </g>
 </g>
</svg>