<?xml version="1.0" encoding="UTF-8"?>
<!DOCTYPE svg PUBLIC "-//W3C//DTD SVG 1.1//EN" "http://www.w3.org/Graphics/SVG/1.1/DTD/svg11.dtd">
<svg version="1.2" width="369.98mm" height="112.67mm" viewBox="-1335 435 36998 11267" preserveAspectRatio="xMidYMid" fill-rule="evenodd" stroke-width="28.222" stroke-linejoin="round" xmlns="http://www.w3.org/2000/svg" xmlns:ooo="http://xml.openoffice.org/svg/export" xmlns:xlink="http://www.w3.org/1999/xlink" xmlns:presentation="http://sun.com/xmlns/staroffice/presentation" xmlns:smil="http://www.w3.org/2001/SMIL20/" xmlns:anim="urn:oasis:names:tc:opendocument:xmlns:animation:1.0" xml:space="preserve">
 <defs class="ClipPathGroup">
  <clipPath id="presentation_clip_path" clipPathUnits="userSpaceOnUse">
   <rect x="-1335" y="435" width="36998" height="11267"/>
  </clipPath>
  <clipPath id="presentation_clip_path_shrink" clipPathUnits="userSpaceOnUse">
   <rect x="-1299" y="446" width="36925" height="11245"/>
  </clipPath>
 </defs>
 <defs class="TextShapeIndex">
  <g ooo:slide="id1" ooo:id-list="id3 id4 id5 id6 id7 id8 id9 id10 id11 id12 id13 id14 id15 id16 id17 id18 id19 id20 id21 id22 id23 id24 id25 id26 id27 id28 id29 id30 id31 id32 id33 id34 id35 id36 id37 id38 id39 id40 id41 id42 id43 id44 id45 id46 id47 id48 id49 id50 id51 id52 id53 id54 id55 id56 id57 id58 id59 id60 id61 id62 id63 id64 id65 id66 id67 id68 id69 id70 id71 id72 id73 id74 id75 id76 id77 id78 id79 id80 id81 id82 id83"/>
 </defs>
 <defs class="EmbeddedBulletChars">
  <g id="bullet-char-template-57356" transform="scale(0.00048828125,-0.00048828125)">
   <path d="M 580,1141 L 1163,571 580,0 -4,571 580,1141 Z"/>
  </g>
  <g id="bullet-char-template-57354" transform="scale(0.00048828125,-0.00048828125)">
   <path d="M 8,1128 L 1137,1128 1137,0 8,0 8,1128 Z"/>
  </g>
  <g id="bullet-char-template-10146" transform="scale(0.00048828125,-0.00048828125)">
   <path d="M 174,0 L 602,739 174,1481 1456,739 174,0 Z M 1358,739 L 309,1346 659,739 1358,739 Z"/>
  </g>
  <g id="bullet-char-template-10132" transform="scale(0.00048828125,-0.00048828125)">
   <path d="M 2015,739 L 1276,0 717,0 1260,543 174,543 174,936 1260,936 717,1481 1274,1481 2015,739 Z"/>
  </g>
  <g id="bullet-char-template-10007" transform="scale(0.00048828125,-0.00048828125)">
   <path d="M 0,-2 C -7,14 -16,27 -25,37 L 356,567 C 262,823 215,952 215,954 215,979 228,992 255,992 264,992 276,990 289,987 310,991 331,999 354,1012 L 381,999 492,748 772,1049 836,1024 860,1049 C 881,1039 901,1025 922,1006 886,937 835,863 770,784 769,783 710,716 594,584 L 774,223 C 774,196 753,168 711,139 L 727,119 C 717,90 699,76 672,76 641,76 570,178 457,381 L 164,-76 C 142,-110 111,-127 72,-127 30,-127 9,-110 8,-76 1,-67 -2,-52 -2,-32 -2,-23 -1,-13 0,-2 Z"/>
  </g>
  <g id="bullet-char-template-10004" transform="scale(0.00048828125,-0.00048828125)">
   <path d="M 285,-33 C 182,-33 111,30 74,156 52,228 41,333 41,471 41,549 55,616 82,672 116,743 169,778 240,778 293,778 328,747 346,684 L 369,508 C 377,444 397,411 428,410 L 1163,1116 C 1174,1127 1196,1133 1229,1133 1271,1133 1292,1118 1292,1087 L 1292,965 C 1292,929 1282,901 1262,881 L 442,47 C 390,-6 338,-33 285,-33 Z"/>
  </g>
  <g id="bullet-char-template-9679" transform="scale(0.00048828125,-0.00048828125)">
   <path d="M 813,0 C 632,0 489,54 383,161 276,268 223,411 223,592 223,773 276,916 383,1023 489,1130 632,1184 813,1184 992,1184 1136,1130 1245,1023 1353,916 1407,772 1407,592 1407,412 1353,268 1245,161 1136,54 992,0 813,0 Z"/>
  </g>
  <g id="bullet-char-template-8226" transform="scale(0.00048828125,-0.00048828125)">
   <path d="M 346,457 C 273,457 209,483 155,535 101,586 74,649 74,723 74,796 101,859 155,911 209,963 273,989 346,989 419,989 480,963 531,910 582,859 608,796 608,723 608,648 583,586 532,535 482,483 420,457 346,457 Z"/>
  </g>
  <g id="bullet-char-template-8211" transform="scale(0.00048828125,-0.00048828125)">
   <path d="M -4,459 L 1135,459 1135,606 -4,606 -4,459 Z"/>
  </g>
  <g id="bullet-char-template-61548" transform="scale(0.00048828125,-0.00048828125)">
   <path d="M 173,740 C 173,903 231,1043 346,1159 462,1274 601,1332 765,1332 928,1332 1067,1274 1183,1159 1299,1043 1357,903 1357,740 1357,577 1299,437 1183,322 1067,206 928,148 765,148 601,148 462,206 346,322 231,437 173,577 173,740 Z"/>
  </g>
 </defs>
 <defs class="TextEmbeddedBitmaps"/>
 <g class="SlideGroup">
  <g>
   <g id="container-id1">
    <g id="id1" class="Slide" clip-path="url(#presentation_clip_path)">
     <g class="Page">
      <g class="com.sun.star.drawing.LineShape">
       <g id="id3">
        <rect class="BoundingBox" stroke="none" fill="none" x="17993" y="3153" width="129" height="2022"/>
        <path fill="none" stroke="rgb(0,0,0)" stroke-width="127" stroke-linejoin="round" d="M 18057,5110 L 18057,3217"/>
       </g>
      </g>
      <g class="com.sun.star.drawing.RectangleShape">
       <g id="id4">
        <rect class="BoundingBox" stroke="none" fill="none" x="8436" y="485" width="3318" height="11090"/>
        <path fill="rgb(255,249,174)" stroke="none" d="M 10095,11510 L 8500,11510 8500,549 11689,549 11689,11510 10095,11510 Z"/>
        <path fill="none" stroke="rgb(0,0,0)" stroke-width="127" stroke-linejoin="round" d="M 10095,11510 L 8500,11510 8500,549 11689,549 11689,11510 10095,11510 Z"/>
       </g>
      </g>
      <g class="Group">
       <g class="com.sun.star.drawing.PolyPolygonShape">
        <g id="id5">
         <rect class="BoundingBox" stroke="none" fill="none" x="9844" y="5178" width="572" height="691"/>
        </g>
       </g>
       <g class="com.sun.star.drawing.ClosedBezierShape">
        <g id="id6">
         <rect class="BoundingBox" stroke="none" fill="none" x="9879" y="5162" width="525" height="730"/>
         <path fill="rgb(0,0,0)" stroke="none" d="M 9882,5843 C 9879,5856 9879,5859 9879,5862 9879,5878 9892,5890 9910,5890 9932,5890 9948,5871 9948,5868 9954,5859 9989,5708 10020,5589 10042,5633 10077,5664 10130,5664 10259,5664 10403,5507 10403,5344 10403,5225 10331,5162 10249,5162 10139,5162 10023,5272 9992,5407 L 9882,5843 Z M 10130,5639 C 10052,5639 10033,5551 10033,5542 10033,5535 10039,5514 10042,5501 10074,5375 10083,5335 10108,5291 10155,5212 10212,5187 10246,5187 10287,5187 10322,5218 10322,5294 10322,5357 10290,5479 10262,5535 10224,5605 10171,5639 10130,5639 Z"/>
        </g>
       </g>
      </g>
      <g class="com.sun.star.drawing.LineShape">
       <g id="id7">
        <rect class="BoundingBox" stroke="none" fill="none" x="6525" y="1408" width="2022" height="129"/>
        <path fill="none" stroke="rgb(0,0,0)" stroke-width="127" stroke-linejoin="round" d="M 6589,1472 L 8482,1472"/>
       </g>
      </g>
      <g class="com.sun.star.drawing.LineShape">
       <g id="id8">
        <rect class="BoundingBox" stroke="none" fill="none" x="6526" y="10195" width="2022" height="129"/>
        <path fill="none" stroke="rgb(0,0,0)" stroke-width="127" stroke-linejoin="round" d="M 6590,10259 L 8483,10259"/>
       </g>
      </g>
      <g class="com.sun.star.drawing.RectangleShape">
       <g id="id9">
        <rect class="BoundingBox" stroke="none" fill="none" x="654" y="436" width="3318" height="2765"/>
        <path fill="rgb(255,249,174)" stroke="none" d="M 2313,3136 L 718,3136 718,500 3907,500 3907,3136 2313,3136 Z"/>
        <path fill="none" stroke="rgb(0,0,0)" stroke-width="127" stroke-linejoin="round" d="M 2313,3136 L 718,3136 718,500 3907,500 3907,3136 2313,3136 Z"/>
       </g>
      </g>
      <g class="com.sun.star.drawing.LineShape">
       <g id="id10">
        <rect class="BoundingBox" stroke="none" fill="none" x="-1256" y="1408" width="2022" height="129"/>
        <path fill="none" stroke="rgb(0,0,0)" stroke-width="127" stroke-linejoin="round" d="M -1192,1472 L 701,1472"/>
       </g>
      </g>
      <g class="com.sun.star.drawing.LineShape">
       <g id="id11">
        <rect class="BoundingBox" stroke="none" fill="none" x="3845" y="1408" width="2022" height="129"/>
        <path fill="none" stroke="rgb(0,0,0)" stroke-width="127" stroke-linejoin="round" d="M 3909,1472 L 5802,1472"/>
       </g>
      </g>
      <g class="com.sun.star.drawing.LineShape">
       <g id="id12">
        <rect class="BoundingBox" stroke="none" fill="none" x="2202" y="3026" width="129" height="2022"/>
        <path fill="none" stroke="rgb(0,0,0)" stroke-width="127" stroke-linejoin="round" d="M 2266,4983 L 2266,3090"/>
       </g>
      </g>
      <g class="com.sun.star.drawing.RectangleShape">
       <g id="id13">
        <rect class="BoundingBox" stroke="none" fill="none" x="560" y="8810" width="3318" height="2765"/>
        <path fill="rgb(255,249,174)" stroke="none" d="M 2218,8874 L 3813,8874 3813,11510 624,11510 624,8874 2218,8874 Z"/>
        <path fill="none" stroke="rgb(0,0,0)" stroke-width="127" stroke-linejoin="round" d="M 2218,8874 L 3813,8874 3813,11510 624,11510 624,8874 2218,8874 Z"/>
       </g>
      </g>
      <g class="com.sun.star.drawing.LineShape">
       <g id="id14">
        <rect class="BoundingBox" stroke="none" fill="none" x="3766" y="10195" width="2022" height="129"/>
        <path fill="none" stroke="rgb(0,0,0)" stroke-width="127" stroke-linejoin="round" d="M 5723,10259 L 3830,10259"/>
       </g>
      </g>
      <g class="com.sun.star.drawing.LineShape">
       <g id="id15">
        <rect class="BoundingBox" stroke="none" fill="none" x="-1335" y="10195" width="2022" height="129"/>
        <path fill="none" stroke="rgb(0,0,0)" stroke-width="127" stroke-linejoin="round" d="M 622,10259 L -1271,10259"/>
       </g>
      </g>
      <g class="com.sun.star.drawing.LineShape">
       <g id="id16">
        <rect class="BoundingBox" stroke="none" fill="none" x="2202" y="6948" width="129" height="2022"/>
        <path fill="none" stroke="rgb(0,0,0)" stroke-width="127" stroke-linejoin="round" d="M 2266,7012 L 2266,8905"/>
       </g>
      </g>
      <g class="Group">
       <g class="com.sun.star.drawing.PolyPolygonShape">
        <g id="id17">
         <rect class="BoundingBox" stroke="none" fill="none" x="1747" y="1386" width="831" height="754"/>
        </g>
       </g>
       <g class="com.sun.star.drawing.ClosedBezierShape">
        <g id="id18">
         <rect class="BoundingBox" stroke="none" fill="none" x="1785" y="1347" width="761" height="796"/>
         <path fill="rgb(0,0,0)" stroke="none" d="M 1945,2013 C 1901,2089 1857,2104 1807,2108 1794,2108 1785,2108 1785,2129 1785,2136 1791,2142 1801,2142 1829,2142 1863,2139 1895,2139 1933,2139 1970,2142 2005,2142 2011,2142 2027,2142 2027,2120 2027,2108 2017,2108 2008,2108 1983,2104 1958,2095 1958,2067 1958,2054 1964,2042 1973,2026 L 2055,1885 2334,1885 C 2337,1910 2353,2060 2353,2070 2353,2104 2293,2108 2271,2108 2256,2108 2246,2108 2246,2129 2246,2142 2259,2142 2262,2142 2306,2142 2353,2139 2400,2139 2428,2139 2497,2142 2526,2142 2532,2142 2545,2142 2545,2120 2545,2108 2535,2108 2519,2108 2450,2108 2450,2098 2447,2067 L 2381,1373 C 2378,1351 2378,1348 2359,1348 2341,1348 2337,1354 2331,1367 L 1945,2013 Z M 2077,1850 L 2297,1486 2331,1850 2077,1850 Z"/>
        </g>
       </g>
      </g>
      <g class="Group">
       <g class="com.sun.star.drawing.PolyPolygonShape">
        <g id="id19">
         <rect class="BoundingBox" stroke="none" fill="none" x="-841" y="1743" width="384" height="730"/>
        </g>
       </g>
       <g class="com.sun.star.drawing.ClosedBezierShape">
        <g id="id20">
         <rect class="BoundingBox" stroke="none" fill="none" x="-810" y="1740" width="296" height="745"/>
         <path fill="rgb(0,0,0)" stroke="none" d="M -524,1781 C -524,1759 -540,1740 -568,1740 -597,1740 -628,1768 -628,1800 -628,1818 -612,1837 -584,1837 -559,1837 -524,1812 -524,1781 Z M -609,2195 C -597,2164 -597,2161 -587,2132 -578,2110 -571,2095 -571,2073 -571,2022 -606,1982 -662,1982 -769,1982 -810,2142 -810,2154 -810,2164 -797,2164 -797,2164 -785,2164 -785,2161 -779,2145 -747,2041 -703,2007 -666,2007 -656,2007 -637,2007 -637,2041 -637,2066 -647,2088 -650,2101 -659,2129 -710,2258 -728,2305 -738,2333 -754,2371 -754,2393 -754,2446 -716,2484 -662,2484 -556,2484 -515,2324 -515,2314 -515,2302 -524,2302 -528,2302 -540,2302 -540,2305 -546,2324 -565,2393 -603,2459 -659,2459 -678,2459 -688,2449 -688,2424 -688,2396 -678,2380 -653,2311 L -609,2195 Z"/>
        </g>
       </g>
      </g>
      <g class="Group">
       <g class="com.sun.star.drawing.PolyPolygonShape">
        <g id="id21">
         <rect class="BoundingBox" stroke="none" fill="none" x="1450" y="3546" width="519" height="944"/>
        </g>
       </g>
       <g class="com.sun.star.drawing.ClosedBezierShape">
        <g id="id22">
         <rect class="BoundingBox" stroke="none" fill="none" x="1435" y="3544" width="457" height="958"/>
         <path fill="rgb(0,0,0)" stroke="none" d="M 1890,3585 C 1890,3563 1874,3544 1849,3544 1824,3544 1790,3569 1790,3604 1790,3626 1805,3641 1830,3641 1862,3641 1890,3613 1890,3585 Z M 1667,4332 C 1645,4417 1592,4479 1529,4479 1523,4479 1507,4479 1488,4467 1520,4460 1539,4432 1539,4410 1539,4391 1526,4369 1495,4369 1466,4369 1435,4395 1435,4435 1435,4479 1479,4501 1532,4501 1611,4501 1714,4445 1743,4335 L 1843,3930 C 1849,3908 1849,3892 1849,3889 1849,3826 1802,3786 1746,3786 1633,3786 1570,3946 1570,3958 1570,3968 1583,3968 1583,3968 1595,3968 1595,3968 1604,3946 1633,3877 1683,3811 1743,3811 1758,3811 1780,3814 1780,3861 1780,3886 1777,3899 1771,3917 L 1667,4332 Z"/>
        </g>
       </g>
      </g>
      <g class="Group">
       <g class="com.sun.star.drawing.PolyPolygonShape">
        <g id="id23">
         <rect class="BoundingBox" stroke="none" fill="none" x="4652" y="1705" width="610" height="767"/>
        </g>
       </g>
       <g class="com.sun.star.drawing.ClosedBezierShape">
        <g id="id24">
         <rect class="BoundingBox" stroke="none" fill="none" x="4711" y="1702" width="503" height="782"/>
         <path fill="rgb(0,0,0)" stroke="none" d="M 4968,1715 C 4968,1715 4968,1702 4953,1702 4928,1702 4849,1711 4818,1715 4808,1715 4799,1715 4799,1737 4799,1749 4808,1749 4824,1749 4877,1749 4880,1755 4880,1768 L 4877,1790 4714,2427 C 4711,2443 4711,2446 4711,2452 4711,2477 4733,2483 4742,2483 4758,2483 4774,2474 4780,2458 4786,2449 4837,2245 4843,2217 4880,2220 4971,2239 4971,2311 4971,2320 4971,2323 4968,2333 4965,2349 4965,2361 4965,2374 4965,2440 5009,2483 5066,2483 5100,2483 5128,2465 5154,2424 5182,2377 5194,2314 5194,2311 5194,2301 5185,2301 5182,2301 5169,2301 5169,2305 5166,2320 5144,2402 5116,2458 5069,2458 5047,2458 5034,2446 5034,2405 5034,2386 5037,2361 5041,2345 5047,2327 5047,2320 5047,2311 5047,2239 4978,2207 4880,2195 4915,2173 4953,2138 4978,2113 5031,2054 5081,2006 5135,2006 5144,2006 5144,2006 5147,2006 5160,2010 5160,2010 5169,2016 5172,2016 5172,2019 5172,2019 5122,2022 5110,2066 5110,2079 5110,2097 5122,2119 5154,2119 5182,2119 5213,2094 5213,2050 5213,2019 5188,1981 5138,1981 5106,1981 5056,1991 4978,2079 4940,2119 4896,2163 4852,2182 L 4968,1715 Z"/>
        </g>
       </g>
      </g>
      <g class="Group">
       <g class="com.sun.star.drawing.PolyPolygonShape">
        <g id="id25">
         <rect class="BoundingBox" stroke="none" fill="none" x="-606" y="10579" width="353" height="768"/>
        </g>
       </g>
       <g class="com.sun.star.drawing.ClosedBezierShape">
        <g id="id26">
         <rect class="BoundingBox" stroke="none" fill="none" x="-559" y="10576" width="240" height="782"/>
         <path fill="rgb(0,0,0)" stroke="none" d="M -320,10589 C -320,10589 -320,10576 -333,10576 -361,10576 -443,10585 -471,10589 -481,10589 -493,10589 -493,10611 -493,10623 -481,10623 -465,10623 -411,10623 -408,10632 -408,10642 L -411,10664 -553,11216 C -556,11229 -559,11238 -559,11254 -559,11317 -509,11357 -459,11357 -421,11357 -393,11336 -374,11295 -352,11254 -339,11188 -339,11185 -339,11175 -349,11175 -352,11175 -364,11175 -364,11179 -368,11194 -390,11266 -408,11332 -455,11332 -487,11332 -487,11298 -487,11282 -487,11254 -487,11251 -481,11229 L -320,10589 Z"/>
        </g>
       </g>
      </g>
      <g class="Group">
       <g class="com.sun.star.drawing.PolyPolygonShape">
        <g id="id27">
         <rect class="BoundingBox" stroke="none" fill="none" x="4338" y="10871" width="663" height="478"/>
        </g>
       </g>
       <g class="com.sun.star.drawing.ClosedBezierShape">
        <g id="id28">
         <rect class="BoundingBox" stroke="none" fill="none" x="4369" y="10856" width="601" height="503"/>
         <path fill="rgb(0,0,0)" stroke="none" d="M 4435,11280 C 4432,11299 4425,11324 4425,11330 4425,11349 4441,11358 4457,11358 4469,11358 4491,11349 4498,11327 4498,11327 4513,11273 4520,11245 L 4542,11145 C 4551,11123 4557,11098 4560,11073 4567,11054 4576,11019 4576,11016 4592,10982 4651,10881 4758,10881 4808,10881 4818,10922 4818,10960 4818,11025 4761,11170 4746,11217 4736,11242 4733,11255 4733,11267 4733,11321 4774,11358 4824,11358 4928,11358 4968,11198 4968,11189 4968,11176 4959,11176 4956,11176 4946,11176 4946,11179 4940,11198 4918,11273 4881,11333 4827,11333 4808,11333 4799,11324 4799,11299 4799,11270 4812,11242 4821,11220 4843,11160 4887,11038 4887,10975 4887,10900 4840,10856 4761,10856 4661,10856 4608,10928 4589,10953 4582,10891 4535,10856 4485,10856 4435,10856 4413,10900 4404,10919 4385,10956 4369,11022 4369,11025 4369,11038 4382,11038 4382,11038 4394,11038 4394,11038 4400,11013 4419,10934 4441,10881 4482,10881 4504,10881 4517,10894 4517,10931 4517,10953 4513,10966 4498,11025 L 4435,11280 Z"/>
        </g>
       </g>
      </g>
      <g class="Group">
       <g class="com.sun.star.drawing.PolyPolygonShape">
        <g id="id29">
         <rect class="BoundingBox" stroke="none" fill="none" x="1450" y="7314" width="519" height="943"/>
        </g>
       </g>
       <g class="com.sun.star.drawing.ClosedBezierShape">
        <g id="id30">
         <rect class="BoundingBox" stroke="none" fill="none" x="1435" y="7311" width="457" height="958"/>
         <path fill="rgb(0,0,0)" stroke="none" d="M 1890,7352 C 1890,7330 1874,7311 1849,7311 1824,7311 1790,7336 1790,7371 1790,7393 1805,7408 1830,7408 1862,7408 1890,7380 1890,7352 Z M 1667,8099 C 1645,8184 1592,8246 1529,8246 1523,8246 1507,8246 1488,8234 1520,8227 1539,8199 1539,8177 1539,8158 1526,8136 1495,8136 1466,8136 1435,8162 1435,8202 1435,8246 1479,8268 1532,8268 1611,8268 1714,8212 1743,8102 L 1843,7697 C 1849,7675 1849,7659 1849,7656 1849,7593 1802,7553 1746,7553 1633,7553 1570,7713 1570,7725 1570,7735 1583,7735 1583,7735 1595,7735 1595,7735 1604,7713 1633,7644 1683,7578 1743,7578 1758,7578 1780,7581 1780,7628 1780,7653 1777,7666 1771,7684 L 1667,8099 Z"/>
        </g>
       </g>
      </g>
      <g class="com.sun.star.drawing.LineShape">
       <g id="id31">
        <rect class="BoundingBox" stroke="none" fill="none" x="22017" y="10322" width="2022" height="129"/>
        <path fill="none" stroke="rgb(0,0,0)" stroke-width="127" stroke-linejoin="round" d="M 22081,10386 L 23974,10386"/>
       </g>
      </g>
      <g class="com.sun.star.drawing.LineShape">
       <g id="id32">
        <rect class="BoundingBox" stroke="none" fill="none" x="14436" y="1535" width="2022" height="129"/>
        <path fill="none" stroke="rgb(0,0,0)" stroke-width="127" stroke-linejoin="round" d="M 14500,1599 L 16393,1599"/>
       </g>
      </g>
      <g class="com.sun.star.drawing.RectangleShape">
       <g id="id33">
        <rect class="BoundingBox" stroke="none" fill="none" x="16351" y="8937" width="3318" height="2765"/>
        <path fill="rgb(255,211,32)" stroke="none" d="M 18010,9001 L 19604,9001 19604,11637 16415,11637 16415,9001 18010,9001 Z"/>
        <path fill="none" stroke="rgb(0,0,0)" stroke-width="127" stroke-linejoin="round" d="M 18010,9001 L 19604,9001 19604,11637 16415,11637 16415,9001 18010,9001 Z"/>
       </g>
      </g>
      <g class="com.sun.star.drawing.LineShape">
       <g id="id34">
        <rect class="BoundingBox" stroke="none" fill="none" x="19557" y="10322" width="2022" height="129"/>
        <path fill="none" stroke="rgb(0,0,0)" stroke-width="127" stroke-linejoin="round" d="M 21514,10386 L 19621,10386"/>
       </g>
      </g>
      <g class="com.sun.star.drawing.LineShape">
       <g id="id35">
        <rect class="BoundingBox" stroke="none" fill="none" x="14456" y="10322" width="2022" height="129"/>
        <path fill="none" stroke="rgb(0,0,0)" stroke-width="127" stroke-linejoin="round" d="M 16413,10386 L 14520,10386"/>
       </g>
      </g>
      <g class="com.sun.star.drawing.LineShape">
       <g id="id36">
        <rect class="BoundingBox" stroke="none" fill="none" x="17993" y="7075" width="129" height="2022"/>
        <path fill="none" stroke="rgb(0,0,0)" stroke-width="127" stroke-linejoin="round" d="M 18057,7139 L 18057,9032"/>
       </g>
      </g>
      <g class="Group">
       <g class="com.sun.star.drawing.PolyPolygonShape">
        <g id="id37">
         <rect class="BoundingBox" stroke="none" fill="none" x="17460" y="9943" width="893" height="755"/>
        </g>
       </g>
       <g class="com.sun.star.drawing.ClosedBezierShape">
        <g id="id38">
         <rect class="BoundingBox" stroke="none" fill="none" x="17507" y="9941" width="792" height="757"/>
         <path fill="rgb(0,0,0)" stroke="none" d="M 17639,10613 C 17626,10653 17623,10663 17538,10663 17520,10663 17507,10663 17507,10685 17507,10697 17516,10697 17538,10697 L 17931,10697 C 18106,10697 18238,10566 18238,10459 18238,10377 18172,10314 18066,10302 18182,10280 18298,10198 18298,10095 18298,10013 18226,9941 18091,9941 L 17720,9941 C 17698,9941 17689,9941 17689,9963 17689,9976 17698,9976 17717,9976 17720,9976 17742,9976 17761,9979 17780,9979 17789,9982 17789,9994 17789,10001 17789,10004 17786,10016 L 17639,10613 Z M 17805,10293 L 17874,10016 C 17884,9979 17887,9976 17934,9976 L 18075,9976 C 18172,9976 18197,10041 18197,10089 18197,10186 18100,10293 17965,10293 L 17805,10293 Z M 17755,10663 C 17739,10663 17736,10663 17730,10663 17720,10660 17717,10660 17717,10650 17717,10647 17717,10644 17720,10625 L 17799,10318 18006,10318 C 18113,10318 18135,10399 18135,10446 18135,10556 18037,10663 17906,10663 L 17755,10663 Z"/>
        </g>
       </g>
      </g>
      <g class="Group">
       <g class="com.sun.star.drawing.PolyPolygonShape">
        <g id="id39">
         <rect class="BoundingBox" stroke="none" fill="none" x="17241" y="3674" width="519" height="943"/>
        </g>
       </g>
       <g class="com.sun.star.drawing.ClosedBezierShape">
        <g id="id40">
         <rect class="BoundingBox" stroke="none" fill="none" x="17226" y="3671" width="456" height="958"/>
         <path fill="rgb(0,0,0)" stroke="none" d="M 17681,3712 C 17681,3690 17665,3671 17640,3671 17615,3671 17581,3696 17581,3731 17581,3753 17596,3768 17621,3768 17653,3768 17681,3740 17681,3712 Z M 17458,4459 C 17436,4544 17383,4606 17320,4606 17314,4606 17298,4606 17279,4594 17311,4587 17330,4559 17330,4537 17330,4518 17317,4496 17286,4496 17257,4496 17226,4522 17226,4562 17226,4606 17270,4628 17323,4628 17402,4628 17505,4572 17534,4462 L 17634,4057 C 17640,4035 17640,4019 17640,4016 17640,3953 17593,3913 17537,3913 17424,3913 17361,4073 17361,4085 17361,4095 17374,4095 17374,4095 17386,4095 17386,4095 17395,4073 17424,4004 17474,3938 17534,3938 17549,3938 17571,3941 17571,3988 17571,4013 17568,4026 17562,4044 L 17458,4459 Z"/>
        </g>
       </g>
      </g>
      <g class="Group">
       <g class="com.sun.star.drawing.PolyPolygonShape">
        <g id="id41">
         <rect class="BoundingBox" stroke="none" fill="none" x="15185" y="10706" width="353" height="767"/>
        </g>
       </g>
       <g class="com.sun.star.drawing.ClosedBezierShape">
        <g id="id42">
         <rect class="BoundingBox" stroke="none" fill="none" x="15231" y="10703" width="241" height="782"/>
         <path fill="rgb(0,0,0)" stroke="none" d="M 15471,10716 C 15471,10716 15471,10703 15458,10703 15430,10703 15348,10712 15320,10716 15310,10716 15298,10716 15298,10738 15298,10750 15310,10750 15326,10750 15380,10750 15383,10759 15383,10769 L 15380,10791 15238,11343 C 15235,11356 15232,11365 15232,11381 15232,11444 15282,11484 15332,11484 15370,11484 15398,11463 15417,11422 15439,11381 15452,11315 15452,11312 15452,11302 15442,11302 15439,11302 15427,11302 15427,11306 15423,11321 15401,11393 15383,11459 15336,11459 15304,11459 15304,11425 15304,11409 15304,11381 15304,11378 15310,11356 L 15471,10716 Z"/>
        </g>
       </g>
      </g>
      <g class="Group">
       <g class="com.sun.star.drawing.PolyPolygonShape">
        <g id="id43">
         <rect class="BoundingBox" stroke="none" fill="none" x="20129" y="10998" width="663" height="478"/>
        </g>
       </g>
       <g class="com.sun.star.drawing.ClosedBezierShape">
        <g id="id44">
         <rect class="BoundingBox" stroke="none" fill="none" x="20160" y="10983" width="600" height="503"/>
         <path fill="rgb(0,0,0)" stroke="none" d="M 20226,11407 C 20223,11426 20216,11451 20216,11457 20216,11476 20232,11485 20248,11485 20260,11485 20282,11476 20289,11454 20289,11454 20304,11400 20311,11372 L 20333,11272 C 20342,11250 20348,11225 20351,11200 20358,11181 20367,11146 20367,11143 20383,11109 20442,11008 20549,11008 20599,11008 20609,11049 20609,11087 20609,11152 20552,11297 20537,11344 20527,11369 20524,11382 20524,11394 20524,11448 20565,11485 20615,11485 20719,11485 20759,11325 20759,11316 20759,11303 20750,11303 20747,11303 20737,11303 20737,11306 20731,11325 20709,11400 20672,11460 20618,11460 20599,11460 20590,11451 20590,11426 20590,11397 20603,11369 20612,11347 20634,11287 20678,11165 20678,11102 20678,11027 20631,10983 20552,10983 20452,10983 20399,11055 20380,11080 20373,11018 20326,10983 20276,10983 20226,10983 20204,11027 20195,11046 20176,11083 20160,11149 20160,11152 20160,11165 20173,11165 20173,11165 20185,11165 20185,11165 20191,11140 20210,11061 20232,11008 20273,11008 20295,11008 20308,11021 20308,11058 20308,11080 20304,11093 20289,11152 L 20226,11407 Z"/>
        </g>
       </g>
      </g>
      <g class="Group">
       <g class="com.sun.star.drawing.PolyPolygonShape">
        <g id="id45">
         <rect class="BoundingBox" stroke="none" fill="none" x="17241" y="7441" width="519" height="943"/>
        </g>
       </g>
       <g class="com.sun.star.drawing.ClosedBezierShape">
        <g id="id46">
         <rect class="BoundingBox" stroke="none" fill="none" x="17226" y="7438" width="456" height="959"/>
         <path fill="rgb(0,0,0)" stroke="none" d="M 17681,7479 C 17681,7457 17665,7438 17640,7438 17615,7438 17581,7463 17581,7498 17581,7520 17596,7535 17621,7535 17653,7535 17681,7507 17681,7479 Z M 17458,8226 C 17436,8311 17383,8373 17320,8373 17314,8373 17298,8373 17279,8361 17311,8354 17330,8326 17330,8304 17330,8285 17317,8263 17286,8263 17257,8263 17226,8289 17226,8329 17226,8373 17270,8395 17323,8395 17402,8395 17505,8339 17534,8229 L 17634,7824 C 17640,7802 17640,7786 17640,7783 17640,7720 17593,7680 17537,7680 17424,7680 17361,7840 17361,7852 17361,7862 17374,7862 17374,7862 17386,7862 17386,7862 17395,7840 17424,7771 17474,7705 17534,7705 17549,7705 17571,7708 17571,7755 17571,7780 17568,7793 17562,7811 L 17458,8226 Z"/>
        </g>
       </g>
      </g>
      <g class="com.sun.star.drawing.LineShape">
       <g id="id47">
        <rect class="BoundingBox" stroke="none" fill="none" x="17993" y="3153" width="129" height="2022"/>
        <path fill="none" stroke="rgb(0,0,0)" stroke-width="127" stroke-linejoin="round" d="M 18057,5110 L 18057,3217"/>
       </g>
      </g>
      <g class="com.sun.star.drawing.LineShape">
       <g id="id48">
        <rect class="BoundingBox" stroke="none" fill="none" x="22017" y="10322" width="2022" height="129"/>
        <path fill="none" stroke="rgb(0,0,0)" stroke-width="127" stroke-linejoin="round" d="M 22081,10386 L 23974,10386"/>
       </g>
      </g>
      <g class="com.sun.star.drawing.ClosedBezierShape">
       <g id="id49">
        <rect class="BoundingBox" stroke="none" fill="none" x="16292" y="435" width="11166" height="11268"/>
        <path fill="rgb(255,249,174)" stroke="none" d="M 27359,11628 C 27369,11623 27377,11615 27382,11605 27388,11595 27391,11585 27391,11574 L 27391,3200 27391,613 27391,564 C 27391,552 27388,542 27382,532 27377,522 27369,514 27359,509 27349,503 27339,500 27328,500 L 16421,500 C 16409,500 16399,503 16389,509 16379,514 16371,522 16366,532 16360,542 16357,552 16357,564 L 16357,3200 C 16357,3211 16360,3221 16366,3231 16371,3241 16379,3249 16389,3254 16399,3260 16409,3263 16421,3263 L 24075,3263 24075,11574 C 24075,11585 24078,11595 24084,11605 24089,11615 24097,11623 24107,11628 24117,11634 24127,11637 24139,11637 L 27328,11637 C 27339,11637 27349,11634 27359,11628 Z"/>
        <path fill="none" stroke="rgb(0,0,0)" stroke-width="130" stroke-linejoin="round" d="M 27359,11628 C 27369,11623 27377,11615 27382,11605 27388,11595 27391,11585 27391,11574 L 27391,3200 27391,613 27391,564 C 27391,552 27388,542 27382,532 27377,522 27369,514 27359,509 27349,503 27339,500 27328,500 L 16421,500 C 16409,500 16399,503 16389,509 16379,514 16371,522 16366,532 16360,542 16357,552 16357,564 L 16357,3200 C 16357,3211 16360,3221 16366,3231 16371,3241 16379,3249 16389,3254 16399,3260 16409,3263 16421,3263 L 24075,3263 24075,11574 C 24075,11585 24078,11595 24084,11605 24089,11615 24097,11623 24107,11628 24117,11634 24127,11637 24139,11637 L 27328,11637 C 27339,11637 27349,11634 27359,11628 Z"/>
       </g>
      </g>
      <g class="com.sun.star.drawing.LineShape">
       <g id="id50">
        <rect class="BoundingBox" stroke="none" fill="none" x="14436" y="1535" width="2022" height="129"/>
        <path fill="none" stroke="rgb(0,0,0)" stroke-width="127" stroke-linejoin="round" d="M 14500,1599 L 16393,1599"/>
       </g>
      </g>
      <g class="com.sun.star.drawing.RectangleShape">
       <g id="id51">
        <rect class="BoundingBox" stroke="none" fill="none" x="16351" y="8937" width="3318" height="2765"/>
        <path fill="rgb(255,249,174)" stroke="none" d="M 18010,9001 L 19604,9001 19604,11637 16415,11637 16415,9001 18010,9001 Z"/>
        <path fill="none" stroke="rgb(0,0,0)" stroke-width="127" stroke-linejoin="round" d="M 18010,9001 L 19604,9001 19604,11637 16415,11637 16415,9001 18010,9001 Z"/>
       </g>
      </g>
      <g class="com.sun.star.drawing.LineShape">
       <g id="id52">
        <rect class="BoundingBox" stroke="none" fill="none" x="19557" y="10322" width="2022" height="129"/>
        <path fill="none" stroke="rgb(0,0,0)" stroke-width="127" stroke-linejoin="round" d="M 21514,10386 L 19621,10386"/>
       </g>
      </g>
      <g class="com.sun.star.drawing.LineShape">
       <g id="id53">
        <rect class="BoundingBox" stroke="none" fill="none" x="14456" y="10322" width="2022" height="129"/>
        <path fill="none" stroke="rgb(0,0,0)" stroke-width="127" stroke-linejoin="round" d="M 16413,10386 L 14520,10386"/>
       </g>
      </g>
      <g class="com.sun.star.drawing.LineShape">
       <g id="id54">
        <rect class="BoundingBox" stroke="none" fill="none" x="17993" y="7075" width="129" height="2022"/>
        <path fill="none" stroke="rgb(0,0,0)" stroke-width="127" stroke-linejoin="round" d="M 18057,7139 L 18057,9032"/>
       </g>
      </g>
      <g class="Group">
       <g class="com.sun.star.drawing.PolyPolygonShape">
        <g id="id55">
         <rect class="BoundingBox" stroke="none" fill="none" x="17241" y="3674" width="519" height="943"/>
        </g>
       </g>
       <g class="com.sun.star.drawing.ClosedBezierShape">
        <g id="id56">
         <rect class="BoundingBox" stroke="none" fill="none" x="17226" y="3671" width="456" height="958"/>
         <path fill="rgb(0,0,0)" stroke="none" d="M 17681,3712 C 17681,3690 17665,3671 17640,3671 17615,3671 17581,3696 17581,3731 17581,3753 17596,3768 17621,3768 17653,3768 17681,3740 17681,3712 Z M 17458,4459 C 17436,4544 17383,4606 17320,4606 17314,4606 17298,4606 17279,4594 17311,4587 17330,4559 17330,4537 17330,4518 17317,4496 17286,4496 17257,4496 17226,4522 17226,4562 17226,4606 17270,4628 17323,4628 17402,4628 17505,4572 17534,4462 L 17634,4057 C 17640,4035 17640,4019 17640,4016 17640,3953 17593,3913 17537,3913 17424,3913 17361,4073 17361,4085 17361,4095 17374,4095 17374,4095 17386,4095 17386,4095 17395,4073 17424,4004 17474,3938 17534,3938 17549,3938 17571,3941 17571,3988 17571,4013 17568,4026 17562,4044 L 17458,4459 Z"/>
        </g>
       </g>
      </g>
      <g class="Group">
       <g class="com.sun.star.drawing.PolyPolygonShape">
        <g id="id57">
         <rect class="BoundingBox" stroke="none" fill="none" x="15185" y="10706" width="353" height="767"/>
        </g>
       </g>
       <g class="com.sun.star.drawing.ClosedBezierShape">
        <g id="id58">
         <rect class="BoundingBox" stroke="none" fill="none" x="15231" y="10703" width="241" height="782"/>
         <path fill="rgb(0,0,0)" stroke="none" d="M 15471,10716 C 15471,10716 15471,10703 15458,10703 15430,10703 15348,10712 15320,10716 15310,10716 15298,10716 15298,10738 15298,10750 15310,10750 15326,10750 15380,10750 15383,10759 15383,10769 L 15380,10791 15238,11343 C 15235,11356 15232,11365 15232,11381 15232,11444 15282,11484 15332,11484 15370,11484 15398,11463 15417,11422 15439,11381 15452,11315 15452,11312 15452,11302 15442,11302 15439,11302 15427,11302 15427,11306 15423,11321 15401,11393 15383,11459 15336,11459 15304,11459 15304,11425 15304,11409 15304,11381 15304,11378 15310,11356 L 15471,10716 Z"/>
        </g>
       </g>
      </g>
      <g class="Group">
       <g class="com.sun.star.drawing.PolyPolygonShape">
        <g id="id59">
         <rect class="BoundingBox" stroke="none" fill="none" x="20129" y="10998" width="663" height="478"/>
        </g>
       </g>
       <g class="com.sun.star.drawing.ClosedBezierShape">
        <g id="id60">
         <rect class="BoundingBox" stroke="none" fill="none" x="20160" y="10983" width="600" height="503"/>
         <path fill="rgb(0,0,0)" stroke="none" d="M 20226,11407 C 20223,11426 20216,11451 20216,11457 20216,11476 20232,11485 20248,11485 20260,11485 20282,11476 20289,11454 20289,11454 20304,11400 20311,11372 L 20333,11272 C 20342,11250 20348,11225 20351,11200 20358,11181 20367,11146 20367,11143 20383,11109 20442,11008 20549,11008 20599,11008 20609,11049 20609,11087 20609,11152 20552,11297 20537,11344 20527,11369 20524,11382 20524,11394 20524,11448 20565,11485 20615,11485 20719,11485 20759,11325 20759,11316 20759,11303 20750,11303 20747,11303 20737,11303 20737,11306 20731,11325 20709,11400 20672,11460 20618,11460 20599,11460 20590,11451 20590,11426 20590,11397 20603,11369 20612,11347 20634,11287 20678,11165 20678,11102 20678,11027 20631,10983 20552,10983 20452,10983 20399,11055 20380,11080 20373,11018 20326,10983 20276,10983 20226,10983 20204,11027 20195,11046 20176,11083 20160,11149 20160,11152 20160,11165 20173,11165 20173,11165 20185,11165 20185,11165 20191,11140 20210,11061 20232,11008 20273,11008 20295,11008 20308,11021 20308,11058 20308,11080 20304,11093 20289,11152 L 20226,11407 Z"/>
        </g>
       </g>
      </g>
      <g class="Group">
       <g class="com.sun.star.drawing.PolyPolygonShape">
        <g id="id61">
         <rect class="BoundingBox" stroke="none" fill="none" x="17241" y="7441" width="519" height="943"/>
        </g>
       </g>
       <g class="com.sun.star.drawing.ClosedBezierShape">
        <g id="id62">
         <rect class="BoundingBox" stroke="none" fill="none" x="17226" y="7438" width="456" height="959"/>
         <path fill="rgb(0,0,0)" stroke="none" d="M 17681,7479 C 17681,7457 17665,7438 17640,7438 17615,7438 17581,7463 17581,7498 17581,7520 17596,7535 17621,7535 17653,7535 17681,7507 17681,7479 Z M 17458,8226 C 17436,8311 17383,8373 17320,8373 17314,8373 17298,8373 17279,8361 17311,8354 17330,8326 17330,8304 17330,8285 17317,8263 17286,8263 17257,8263 17226,8289 17226,8329 17226,8373 17270,8395 17323,8395 17402,8395 17505,8339 17534,8229 L 17634,7824 C 17640,7802 17640,7786 17640,7783 17640,7720 17593,7680 17537,7680 17424,7680 17361,7840 17361,7852 17361,7862 17374,7862 17374,7862 17386,7862 17386,7862 17395,7840 17424,7771 17474,7705 17534,7705 17549,7705 17571,7708 17571,7755 17571,7780 17568,7793 17562,7811 L 17458,8226 Z"/>
        </g>
       </g>
      </g>
      <g class="com.sun.star.drawing.CustomShape">
       <g id="id63">
        <rect class="BoundingBox" stroke="none" fill="none" x="12499" y="4999" width="2004" height="2504"/>
        <path fill="rgb(153,204,255)" stroke="none" d="M 12500,5625 L 14000,5625 14000,5000 14501,6250 14000,7501 14000,6875 12500,6875 12500,5625 Z"/>
        <path fill="none" stroke="rgb(0,0,0)" d="M 12500,5625 L 14000,5625 14000,5000 14501,6250 14000,7501 14000,6875 12500,6875 12500,5625 Z"/>
       </g>
      </g>
      <g class="com.sun.star.drawing.CustomShape">
       <g id="id64">
        <rect class="BoundingBox" stroke="none" fill="none" x="28299" y="4999" width="2004" height="2504"/>
        <path fill="rgb(153,204,255)" stroke="none" d="M 28300,5625 L 29800,5625 29800,5000 30301,6250 29800,7501 29800,6875 28300,6875 28300,5625 Z"/>
        <path fill="none" stroke="rgb(0,0,0)" d="M 28300,5625 L 29800,5625 29800,5000 30301,6250 29800,7501 29800,6875 28300,6875 28300,5625 Z"/>
       </g>
      </g>
      <g class="Group">
       <g class="com.sun.star.drawing.PolyPolygonShape">
        <g id="id65">
         <rect class="BoundingBox" stroke="none" fill="none" x="7152" y="1705" width="610" height="767"/>
        </g>
       </g>
       <g class="com.sun.star.drawing.ClosedBezierShape">
        <g id="id66">
         <rect class="BoundingBox" stroke="none" fill="none" x="7211" y="1702" width="503" height="782"/>
         <path fill="rgb(0,0,0)" stroke="none" d="M 7468,1715 C 7468,1715 7468,1702 7453,1702 7428,1702 7349,1711 7318,1715 7308,1715 7299,1715 7299,1737 7299,1749 7308,1749 7324,1749 7377,1749 7380,1755 7380,1768 L 7377,1790 7214,2427 C 7211,2443 7211,2446 7211,2452 7211,2477 7233,2483 7242,2483 7258,2483 7274,2474 7280,2458 7286,2449 7337,2245 7343,2217 7380,2220 7471,2239 7471,2311 7471,2320 7471,2323 7468,2333 7465,2349 7465,2361 7465,2374 7465,2440 7509,2483 7566,2483 7600,2483 7628,2465 7654,2424 7682,2377 7694,2314 7694,2311 7694,2301 7685,2301 7682,2301 7669,2301 7669,2305 7666,2320 7644,2402 7616,2458 7569,2458 7547,2458 7534,2446 7534,2405 7534,2386 7537,2361 7541,2345 7547,2327 7547,2320 7547,2311 7547,2239 7478,2207 7380,2195 7415,2173 7453,2138 7478,2113 7531,2054 7581,2006 7635,2006 7644,2006 7644,2006 7647,2006 7660,2010 7660,2010 7669,2016 7672,2016 7672,2019 7672,2019 7622,2022 7610,2066 7610,2079 7610,2097 7622,2119 7654,2119 7682,2119 7713,2094 7713,2050 7713,2019 7688,1981 7638,1981 7606,1981 7556,1991 7478,2079 7440,2119 7396,2163 7352,2182 L 7468,1715 Z"/>
        </g>
       </g>
      </g>
      <g class="Group">
       <g class="com.sun.star.drawing.PolyPolygonShape">
        <g id="id67">
         <rect class="BoundingBox" stroke="none" fill="none" x="6838" y="10871" width="663" height="478"/>
        </g>
       </g>
       <g class="com.sun.star.drawing.ClosedBezierShape">
        <g id="id68">
         <rect class="BoundingBox" stroke="none" fill="none" x="6869" y="10856" width="600" height="503"/>
         <path fill="rgb(0,0,0)" stroke="none" d="M 6935,11280 C 6932,11299 6925,11324 6925,11330 6925,11349 6941,11358 6957,11358 6969,11358 6991,11349 6998,11327 6998,11327 7013,11273 7020,11245 L 7042,11145 C 7051,11123 7057,11098 7060,11073 7067,11054 7076,11019 7076,11016 7092,10982 7151,10881 7258,10881 7308,10881 7318,10922 7318,10960 7318,11025 7261,11170 7246,11217 7236,11242 7233,11255 7233,11267 7233,11321 7274,11358 7324,11358 7428,11358 7468,11198 7468,11189 7468,11176 7459,11176 7456,11176 7446,11176 7446,11179 7440,11198 7418,11273 7381,11333 7327,11333 7308,11333 7299,11324 7299,11299 7299,11270 7312,11242 7321,11220 7343,11160 7387,11038 7387,10975 7387,10900 7340,10856 7261,10856 7161,10856 7108,10928 7089,10953 7082,10891 7035,10856 6985,10856 6935,10856 6913,10900 6904,10919 6885,10956 6869,11022 6869,11025 6869,11038 6882,11038 6882,11038 6894,11038 6894,11038 6900,11013 6919,10934 6941,10881 6982,10881 7004,10881 7017,10894 7017,10931 7017,10953 7013,10966 6998,11025 L 6935,11280 Z"/>
        </g>
       </g>
      </g>
      <g class="Group">
       <g class="com.sun.star.drawing.PolyPolygonShape">
        <g id="id69">
         <rect class="BoundingBox" stroke="none" fill="none" x="15209" y="1896" width="384" height="729"/>
        </g>
       </g>
       <g class="com.sun.star.drawing.ClosedBezierShape">
        <g id="id70">
         <rect class="BoundingBox" stroke="none" fill="none" x="15240" y="1893" width="296" height="745"/>
         <path fill="rgb(0,0,0)" stroke="none" d="M 15526,1934 C 15526,1912 15510,1893 15482,1893 15453,1893 15422,1921 15422,1953 15422,1971 15438,1990 15466,1990 15491,1990 15526,1965 15526,1934 Z M 15441,2348 C 15453,2317 15453,2314 15463,2285 15472,2263 15479,2248 15479,2226 15479,2175 15444,2135 15388,2135 15281,2135 15240,2295 15240,2307 15240,2317 15253,2317 15253,2317 15265,2317 15265,2314 15271,2298 15303,2194 15347,2160 15384,2160 15394,2160 15413,2160 15413,2194 15413,2219 15403,2241 15400,2254 15391,2282 15340,2411 15322,2458 15312,2486 15296,2524 15296,2546 15296,2599 15334,2637 15388,2637 15494,2637 15535,2477 15535,2467 15535,2455 15526,2455 15522,2455 15510,2455 15510,2458 15504,2477 15485,2546 15447,2612 15391,2612 15372,2612 15362,2602 15362,2577 15362,2549 15372,2533 15397,2464 L 15441,2348 Z"/>
        </g>
       </g>
      </g>
      <g class="Group">
       <g class="com.sun.star.drawing.PolyPolygonShape">
        <g id="id71">
         <rect class="BoundingBox" stroke="none" fill="none" x="22629" y="10998" width="663" height="478"/>
        </g>
       </g>
       <g class="com.sun.star.drawing.ClosedBezierShape">
        <g id="id72">
         <rect class="BoundingBox" stroke="none" fill="none" x="22660" y="10983" width="600" height="503"/>
         <path fill="rgb(0,0,0)" stroke="none" d="M 22726,11407 C 22723,11426 22716,11451 22716,11457 22716,11476 22732,11485 22748,11485 22760,11485 22782,11476 22789,11454 22789,11454 22804,11400 22811,11372 L 22833,11272 C 22842,11250 22848,11225 22851,11200 22858,11181 22867,11146 22867,11143 22883,11109 22942,11008 23049,11008 23099,11008 23109,11049 23109,11087 23109,11152 23052,11297 23037,11344 23027,11369 23024,11382 23024,11394 23024,11448 23065,11485 23115,11485 23219,11485 23259,11325 23259,11316 23259,11303 23250,11303 23247,11303 23237,11303 23237,11306 23231,11325 23209,11400 23172,11460 23118,11460 23099,11460 23090,11451 23090,11426 23090,11397 23103,11369 23112,11347 23134,11287 23178,11165 23178,11102 23178,11027 23131,10983 23052,10983 22952,10983 22899,11055 22880,11080 22873,11018 22826,10983 22776,10983 22726,10983 22704,11027 22695,11046 22676,11083 22660,11149 22660,11152 22660,11165 22673,11165 22673,11165 22685,11165 22685,11165 22691,11140 22710,11061 22732,11008 22773,11008 22795,11008 22808,11021 22808,11058 22808,11080 22804,11093 22789,11152 L 22726,11407 Z"/>
        </g>
       </g>
      </g>
      <g class="com.sun.star.drawing.LineShape">
       <g id="id73">
        <rect class="BoundingBox" stroke="none" fill="none" x="30615" y="1550" width="2022" height="129"/>
        <path fill="none" stroke="rgb(0,0,0)" stroke-width="127" stroke-linejoin="round" d="M 30679,1614 L 32572,1614"/>
       </g>
      </g>
      <g class="com.sun.star.drawing.LineShape">
       <g id="id74">
        <rect class="BoundingBox" stroke="none" fill="none" x="30536" y="10337" width="2022" height="129"/>
        <path fill="none" stroke="rgb(0,0,0)" stroke-width="127" stroke-linejoin="round" d="M 32493,10401 L 30600,10401"/>
       </g>
      </g>
      <g class="Group">
       <g class="com.sun.star.drawing.PolyPolygonShape">
        <g id="id75">
         <rect class="BoundingBox" stroke="none" fill="none" x="31030" y="1885" width="384" height="729"/>
        </g>
       </g>
       <g class="com.sun.star.drawing.ClosedBezierShape">
        <g id="id76">
         <rect class="BoundingBox" stroke="none" fill="none" x="31061" y="1882" width="296" height="745"/>
         <path fill="rgb(0,0,0)" stroke="none" d="M 31347,1923 C 31347,1901 31331,1882 31303,1882 31274,1882 31243,1910 31243,1942 31243,1960 31259,1979 31287,1979 31312,1979 31347,1954 31347,1923 Z M 31262,2337 C 31274,2306 31274,2303 31284,2274 31293,2252 31300,2237 31300,2215 31300,2164 31265,2124 31209,2124 31102,2124 31061,2284 31061,2296 31061,2306 31074,2306 31074,2306 31086,2306 31086,2303 31092,2287 31124,2183 31168,2149 31205,2149 31215,2149 31234,2149 31234,2183 31234,2208 31224,2230 31221,2243 31212,2271 31161,2400 31143,2447 31133,2475 31117,2513 31117,2535 31117,2588 31155,2626 31209,2626 31315,2626 31356,2466 31356,2456 31356,2444 31347,2444 31343,2444 31331,2444 31331,2447 31325,2466 31306,2535 31268,2601 31212,2601 31193,2601 31183,2591 31183,2566 31183,2538 31193,2522 31218,2453 L 31262,2337 Z"/>
        </g>
       </g>
      </g>
      <g class="Group">
       <g class="com.sun.star.drawing.PolyPolygonShape">
        <g id="id77">
         <rect class="BoundingBox" stroke="none" fill="none" x="31265" y="10721" width="353" height="767"/>
        </g>
       </g>
       <g class="com.sun.star.drawing.ClosedBezierShape">
        <g id="id78">
         <rect class="BoundingBox" stroke="none" fill="none" x="31312" y="10718" width="240" height="782"/>
         <path fill="rgb(0,0,0)" stroke="none" d="M 31551,10731 C 31551,10731 31551,10718 31538,10718 31510,10718 31428,10727 31400,10731 31390,10731 31378,10731 31378,10753 31378,10765 31390,10765 31406,10765 31460,10765 31463,10774 31463,10784 L 31460,10806 31318,11358 C 31315,11371 31312,11380 31312,11396 31312,11459 31362,11499 31412,11499 31450,11499 31478,11478 31497,11437 31519,11396 31532,11330 31532,11327 31532,11317 31522,11317 31519,11317 31507,11317 31507,11321 31503,11336 31481,11408 31463,11474 31416,11474 31384,11474 31384,11440 31384,11424 31384,11396 31384,11393 31390,11371 L 31551,10731 Z"/>
        </g>
       </g>
      </g>
      <g class="com.sun.star.drawing.RectangleShape">
       <g id="id79">
        <rect class="BoundingBox" stroke="none" fill="none" x="32347" y="475" width="3318" height="11090"/>
        <path fill="rgb(255,249,174)" stroke="none" d="M 34006,11500 L 32411,11500 32411,539 35600,539 35600,11500 34006,11500 Z"/>
        <path fill="none" stroke="rgb(0,0,0)" stroke-width="127" stroke-linejoin="round" d="M 34006,11500 L 32411,11500 32411,539 35600,539 35600,11500 34006,11500 Z"/>
       </g>
      </g>
      <g class="Group">
       <g class="com.sun.star.drawing.PolyPolygonShape">
        <g id="id80">
         <rect class="BoundingBox" stroke="none" fill="none" x="33755" y="5168" width="572" height="692"/>
        </g>
       </g>
       <g class="com.sun.star.drawing.ClosedBezierShape">
        <g id="id81">
         <rect class="BoundingBox" stroke="none" fill="none" x="33790" y="5152" width="525" height="730"/>
         <path fill="rgb(0,0,0)" stroke="none" d="M 33793,5833 C 33790,5846 33790,5849 33790,5852 33790,5868 33803,5880 33821,5880 33843,5880 33859,5861 33859,5858 33865,5849 33900,5698 33931,5579 33953,5623 33988,5654 34041,5654 34170,5654 34314,5497 34314,5334 34314,5215 34242,5152 34160,5152 34050,5152 33934,5262 33903,5397 L 33793,5833 Z M 34041,5629 C 33963,5629 33944,5541 33944,5532 33944,5525 33950,5504 33953,5491 33985,5365 33994,5325 34019,5281 34066,5202 34123,5177 34157,5177 34198,5177 34233,5208 34233,5284 34233,5347 34201,5469 34173,5525 34135,5595 34082,5629 34041,5629 Z"/>
        </g>
       </g>
      </g>
      <g class="Group">
       <g class="Graphic">
        <g id="id82">
         <rect class="BoundingBox" stroke="none" fill="none" x="1500" y="9706" width="1369" height="829"/>
         <defs>
          <clipPath id="clip_path_1" clipPathUnits="userSpaceOnUse">
           <path d="M 1500,9706 L 2868,9706 2868,10534 1500,10534 1500,9706 Z"/>
          </clipPath>
         </defs>
         <g clip-path="url(#clip_path_1)">
          <path fill="rgb(0,0,0)" stroke="none" d="M 1680,10447 C 1668,10490 1666,10499 1577,10499 1558,10499 1547,10499 1547,10522 1547,10534 1557,10534 1577,10534 L 1978,10534 C 2156,10534 2288,10402 2288,10292 2288,10211 2223,10146 2114,10134 2231,10112 2349,10030 2349,9923 2349,9840 2275,9768 2140,9768 L 1763,9768 C 1741,9768 1730,9768 1730,9791 1730,9803 1740,9803 1762,9803 1764,9803 1785,9803 1804,9805 1824,9808 1835,9809 1835,9823 1835,9828 1833,9831 1830,9845 L 1680,10447 1680,10447 Z M 1849,10124 L 1919,9846 C 1929,9806 1931,9803 1979,9803 L 2124,9803 C 2223,9803 2247,9869 2247,9919 2247,10017 2150,10124 2013,10124 L 1849,10124 1849,10124 Z M 1799,10499 C 1783,10499 1781,10499 1774,10498 1763,10497 1759,10496 1759,10487 1759,10484 1759,10481 1765,10461 L 1842,10148 2055,10148 C 2162,10148 2184,10231 2184,10280 2184,10391 2084,10499 1951,10499 L 1799,10499 1799,10499 Z"/>
          <path fill="rgb(0,0,0)" stroke="none" d="M 2662,9876 C 2726,9847 2755,9836 2775,9827 2790,9821 2797,9818 2797,9803 2797,9789 2787,9778 2773,9778 2767,9778 2766,9778 2756,9785 L 2649,9856 2661,9740 C 2663,9726 2661,9706 2637,9706 2628,9706 2613,9712 2613,9730 2613,9737 2616,9760 2617,9768 2619,9782 2624,9838 2626,9856 L 2520,9785 C 2512,9780 2509,9778 2502,9778 2488,9778 2478,9789 2478,9803 2478,9818 2487,9822 2494,9825 L 2613,9875 C 2549,9903 2520,9914 2500,9924 2485,9930 2478,9933 2478,9948 2478,9961 2488,9973 2502,9973 2508,9973 2509,9973 2519,9966 L 2626,9895 2613,10021 C 2613,10038 2628,10044 2637,10044 2647,10044 2662,10038 2662,10021 2662,10014 2659,9990 2658,9982 2656,9969 2651,9913 2649,9895 L 2744,9957 C 2764,9973 2766,9973 2773,9973 2787,9973 2797,9961 2797,9948 2797,9932 2788,9928 2781,9925 L 2662,9876 2662,9876 Z"/>
         </g>
        </g>
       </g>
      </g>
      <g class="Group">
       <g class="Graphic">
        <g id="id83">
         <rect class="BoundingBox" stroke="none" fill="none" x="17300" y="9806" width="1369" height="829"/>
         <defs>
          <clipPath id="clip_path_2" clipPathUnits="userSpaceOnUse">
           <path d="M 17300,9806 L 18668,9806 18668,10634 17300,10634 17300,9806 Z"/>
          </clipPath>
         </defs>
         <g clip-path="url(#clip_path_2)">
          <path fill="rgb(0,0,0)" stroke="none" d="M 17480,10547 C 17468,10590 17466,10599 17377,10599 17358,10599 17347,10599 17347,10622 17347,10634 17357,10634 17377,10634 L 17778,10634 C 17956,10634 18088,10502 18088,10392 18088,10311 18023,10246 17914,10234 18031,10212 18149,10130 18149,10023 18149,9940 18075,9868 17940,9868 L 17563,9868 C 17541,9868 17530,9868 17530,9891 17530,9903 17540,9903 17562,9903 17564,9903 17585,9903 17604,9905 17624,9908 17635,9909 17635,9923 17635,9928 17633,9931 17630,9945 L 17480,10547 17480,10547 Z M 17649,10224 L 17719,9946 C 17729,9906 17731,9903 17779,9903 L 17924,9903 C 18023,9903 18047,9969 18047,10019 18047,10117 17950,10224 17813,10224 L 17649,10224 17649,10224 Z M 17599,10599 C 17583,10599 17581,10599 17574,10598 17563,10597 17559,10596 17559,10587 17559,10584 17559,10581 17565,10561 L 17642,10248 17855,10248 C 17962,10248 17984,10331 17984,10380 17984,10491 17884,10599 17751,10599 L 17599,10599 17599,10599 Z"/>
          <path fill="rgb(0,0,0)" stroke="none" d="M 18462,9976 C 18526,9947 18555,9936 18575,9927 18590,9921 18597,9918 18597,9903 18597,9889 18587,9878 18573,9878 18567,9878 18566,9878 18556,9885 L 18449,9956 18461,9840 C 18463,9826 18461,9806 18437,9806 18428,9806 18413,9812 18413,9830 18413,9837 18416,9860 18417,9868 18419,9882 18424,9938 18426,9956 L 18320,9885 C 18312,9880 18309,9878 18302,9878 18288,9878 18278,9889 18278,9903 18278,9918 18287,9922 18294,9925 L 18413,9975 C 18349,10003 18320,10014 18300,10024 18285,10030 18278,10033 18278,10048 18278,10061 18288,10073 18302,10073 18308,10073 18309,10073 18319,10066 L 18426,9995 18413,10121 C 18413,10138 18428,10144 18437,10144 18447,10144 18462,10138 18462,10121 18462,10114 18459,10090 18458,10082 18456,10069 18451,10013 18449,9995 L 18544,10057 C 18564,10073 18566,10073 18573,10073 18587,10073 18597,10061 18597,10048 18597,10032 18588,10028 18581,10025 L 18462,9976 18462,9976 Z"/>
         </g>
        </g>
       </g>
      </g>
     </g>
    </g>
   </g>
  </g>
 </g>
</svg>